<?xml version="1.0" encoding="UTF-8"?>
<svg version="1.1" viewBox="0 0 1600 1600" width="2048" height="2048" xmlns="http://www.w3.org/2000/svg">
<path transform="translate(1230,160)" d="m0 0h62l19 4 17 8 14 10 7 7 10 14 3 5 4 9 6 16 1 11 1 28 1 3 1 266 4 1 1 2v146l-4 1-1 2-1 642-5 6v15l2 4-1 10-3 10-6 13-6 9-7 9-9 9-5 6-18 9-9 2 1 6h-47l-3-1-76-2-3-1-19-1-45-1-33-2-40-1-23-1-10-1-113-4-22-1v-6l-9-3-13-7v-2l-5-2-17-17-8-12-7-16-5-19-1-7v-116l1-260h-2v-164l1-3v-320l-1-9 1-2 1-102 1-9-1-3v-77l1-5 1-9 6-2 3-2 7-19 12-19 13-13 10-7 13-7 11-3 2-4 5-5 5-2 9-1 33-1 3-1 74-2 4-1 40-1 3-1h53l17-2 3-1 87-2zm-47 524v12l1-4 8 4h45l4-4v-5h-7l-3 1-7-3-4-1v3h-20l-8-1-2-2z" fill="#FBFCFB"/>
<path transform="translate(322,193)" d="m0 0h25l3 1 23 2 12 2 13 1 13 2 13 1 3 1 16 2 20 2 3 1 24 2 3 1 11 1 30 1 5 1v2l16 2 5 5 13 1 9 4h32l5-1 1-3 14 1 17 3 16 5 15 8 10 8 7 7 5 10 5 9 4 8 1 9v4l4 1 2 10 2 32 1 1 1 627 1 1v9l-1 2-1 198-5 1v146l1 9-5 4-1 2h-2l-1 7-8 15-9 10-5 6-8 6-9 5-9 3-12 3v4l-12 6-30 1-30 2-23 1-9 1-52 2-13 1-36 1-9 1-72 3-28 2h-11l-15 1h-17l-3-5-16-5-10-5-10-7-11-11-9-13-6-12-4-13-3-10-1-7v-217l1-195 1-3v-46l-1-4v-208l2-205v-50l-5-6-1-9 3-6 3-2v-91l1-7v-11l4-17 2-2 1-8 5-10 3-1 2-7 5-3 12-12 8-5 5-4 15 2 4 1 16-8z" fill="#FCFCFC"/>
<path transform="translate(1230,160)" d="m0 0h62l19 4 17 8 14 10 7 7 10 14 3 5 4 9 6 16 1 11 1 28 1 3 1 266 4 1 1 2v146l-4 1-1 2-1 642-5 6v15l2 4-1 10-3 10-6 13-6 9-7 9-9 9-5 6-18 9-9 2 1 6h-47l-3-1-76-2-3-1-19-1-45-1-33-2-40-1-23-1-10-1-113-4-22-1v-6l-9-3-13-7v-2l-5-2-17-17-8-12-7-16-5-19-1-7v-116l1-260h-2v-164l1-3v-320l-1-9 1-2 1-102 1-9-1-3v-77l1-5 1-9 6-2 3-2 7-19 12-19 13-13 10-7 13-7 11-3 2-4 5-5 5-2 9-1 33-1 3-1 74-2 4-1 40-1 3-1h53l17-2 3-1 87-2zm116 256-1 15h-23l-3 1-27 2-18-1h-13l-16 1h-36l-14 2h-26l-9 1h-12l-11 1-45 1h-22l-43 3h-10l-7 1-24-1-19 1-7-1-6 2-3-1-3-8h-1v10h-4l-1-2-5 1-1-1v-5l7-2v-3l-5 1-4 2-1-2-2 10h-2v2h-5l1 2-3 3-5 1-21 1v-3h-2l2-7 3 3v-2h6v-4l5 3 3-1v-16l-1 3-5 1-2 4-14-1v13h-3l-1-2-1 1h-5l-2-5h-1l-1 7-3 1-1 3-4 2h-10l-6-2-2-4-4-2-7 1-3 1-1-22h-1l-1 164-1 311v438l4 16 7 14 10 13 9 8 13 8 15 5 6 1 43 2 264 10 50 2h33l16-4 12-6 10-8 8-9 8-14 4-11 2-10v-939z" fill="#A8E0D0"/>
<path transform="translate(1286,502)" d="m0 0h23l6 3 1 2-2 1 1 3h4l1 3v216l-4 7-5 3-4 1-410 3h-31l-7-4-3-5-1-7 1-87v-119l4-6 3-3 3-1 20-1 171-4zm-103 182v12l1-4 8 4h45l4-4v-5h-7l-3 1-7-3-4-1v3h-20l-8-1-2-2z" fill="#1EBC97"/>
<path transform="translate(322,193)" d="m0 0h25l3 1 23 2 12 2 13 1 13 2 13 1 3 1 16 2 20 2 3 1 24 2 3 1 11 1 30 1 5 1v2l16 2 5 5 13 1 9 4h32l5-1 1-3 14 1 17 3 16 5 15 8 10 8 7 7 5 10 5 9 4 8 1 9v4l4 1 2 10 2 32 1 1 1 627 1 1v9l-1 2-1 198-5 1v146l1 9-5 4-1 2h-2l-1 7-8 15-9 10-5 6-8 6-9 5-9 3-12 3v4l-12 6-30 1-30 2-23 1-9 1-52 2-13 1-36 1-9 1-72 3-28 2h-11l-15 1h-17l-3-5-16-5-10-5-10-7-11-11-9-13-6-12-4-13-3-10-1-7v-217l1-195 1-3v-46l-1-4v-208l2-205v-50l-5-6-1-9 3-6 3-2v-91l1-7v-11l4-17 2-2 1-8 5-10 3-1 2-7 5-3 12-12 8-5 5-4 15 2 4 1 16-8zm6 20-13 3-11 6-10 9-7 9-6 12-3 11-1 7-1 129-3 795v133l3 17 4 11 6 11 8 10 8 7 10 6 9 3 5 1h23l286-12 19-1 12-3 10-5 12-11 7-10 7-16 3-17v-999l-2-16-5-15-9-15-10-11-14-9-12-4-50-6-157-18-104-12z" fill="#3C454D"/>
<path transform="translate(1230,160)" d="m0 0h62l19 4 17 8 14 10 7 7 10 14 3 5 4 9 6 16 1 11 1 28 1 3 1 266 4 1 1 2v146l-4 1-1 2-1 642-5 6v15l2 4-1 10-3 10-6 13-6 9-7 9-9 9-5 6-18 9-9 2 1 6h-47l-3-1-76-2-3-1-19-1-45-1-33-2-40-1-23-1-10-1-113-4-22-1v-6l-9-3-13-7v-2l-5-2-17-17-8-12-7-16-5-19-1-7v-116l1-260h-2v-164l1-3v-320l-1-9 1-2 1-102 1-9-1-3v-77l1-5 1-9 6-2 3-2 7-19 12-19 13-13 10-7 13-7 11-3 2-4 5-5 5-2 9-1 33-1 3-1 74-2 4-1 40-1 3-1h53l17-2 3-1 87-2zm30 24-285 11-58 2-15 1-16 4-10 4-10 6-10 9-8 9-7 12-5 15-1 6-1 103-1 534v438l4 16 7 14 10 13 9 8 13 8 15 5 6 1 43 2 264 10 50 2h33l16-4 12-6 10-8 8-9 8-14 4-11 2-10v-1106l-3-17-6-14-8-11-10-10-12-7-10-4-11-2z" fill="#040505"/>
<path transform="translate(326,198)" d="m0 0h22l187 22 23 3 15 1 9 4h32l5-1 1-3 14 1 17 3 16 5 15 8 10 8 7 7 5 10 5 9 4 8 1 9v4l4 1 2 10 2 32 1 1 1 627 1 1v9l-1 2-1 198-5 1v146l1 9-5 4-1 2h-2l-1 7-8 15-9 10-5 6-8 6-9 5-9 3-10 3-302 14h-23l-14-3-12-5-10-7-10-9-7-10-8-15-5-17-2-12v-236l2-620 1-196 2-17 4-15 5-12 13-18 9-7h2v-2l14-6zm2 15-13 3-11 6-10 9-7 9-6 12-3 11-1 7-1 129-3 795v133l3 17 4 11 6 11 8 10 8 7 10 6 9 3 5 1h23l286-12 19-1 12-3 10-5 12-11 7-10 7-16 3-17v-999l-2-16-5-15-9-15-10-11-14-9-12-4-50-6-157-18-104-12z" fill="#030303"/>
<path transform="translate(1230,160)" d="m0 0h62l19 4 17 8 14 10 7 7 10 14 3 5 4 9 6 16 1 11 1 28 1 3 1 266 4 1 1 2v146l-4 1-1 2-1 642-5 6v15l2 4-1 10-3 10-6 13-6 9-7 9-9 9-5 6-18 9-8 2v-2l-6 2-14-1v2h-40l-80-3-92-4-5-1-112-4v-1l19-1v-2h21l158 6 99 4h27l17-3 11-4 13-7 10-8 8-9 9-14 6-15 3-12 1-7v-1100l-3-21-5-15-8-14-8-10-10-9-14-8-9-4-13-3-8-1h-25l-64 2-16 1-79 3-183 8-21 2-5 2-6 2-4-1 7-2 2-4 5-5 5-2 9-1 33-1 3-1 74-2 4-1 40-1 3-1h53l17-2 3-1 87-2z" fill="#424C55"/>
<path transform="translate(322,193)" d="m0 0h25l3 2h-23l-15 3-9 4-12 7-9 8-7 10-8 14-5 16-1 6h-3l-2-2-1-3-3 37v8l-1 2v5h-2v2h3v168l-1 7v37l-1 190-1 9-1 44-1 63-2 2-3-1-4 2-4-1-3 2v-2l-6 1-2 38-2-4v-208l2-205v-50l-5-6-1-9 3-6 3-2v-91l1-7v-11l4-17 2-2 1-8 5-10 3-1 2-7 5-3 12-12 8-5 5-4 15 2 4 1 16-8z" fill="#9FBDC7"/>
<path transform="translate(1206,657)" d="m0 0h91l4 4 1 3v50l-3 5-4 2-100 1h-97l-5-5v-53l5-5 21-1zm-23 27v12l1-4 8 4h45l4-4v-5h-7l-3 1-7-3-4-1v3h-20l-8-1-2-2z" fill="#F8FBFA"/>
<path transform="translate(1037,659)" d="m0 0h27l5 4 1 3v50l-4 6-3 1-87 1h-99l-5-5v-52l4-5 3-1z" fill="#F6F9F9"/>
<path transform="translate(821,254)" d="m0 0h1l-1 88-1 725v266l3 18 2 9 11 20 4 5v4l4 2 10 9 11 7v2l9 3 15 4 14 2 22 1v2h48v2h-14v2h-20l4-2-7-1v2l-4 1h-23l-20-2-9-1 9 3 7 1v1h-21v-6l-9-3-13-7v-2l-5-2-17-17-8-12-7-16-5-19-1-7v-116l1-260h-2v-164l1-3v-320l-1-9 1-2 1-102 1-9-1-3v-77l1-5 1-9 6-2z" fill="#2F353C"/>
<path transform="translate(1302,664)" d="m0 0 1 3 4 1 2 4v21l2 3 3 1v-3h2v-2l2-1 1-21h1v60l-4 7-5 3-4 1-410 3h-31l-7-4-3-5-1-7 1-31 1 3 5-3 3-1 1-6 3-4 2-4 1 9 1 28 4 4h99l87-1 6-3 1 4 3 4 7 1 3-1v-7l-2-7 5-2h5l-3-9-1-8 2-3h3l1 23 3 6 2 1h97l100-1 4-2 2-4z" fill="#03B087"/>
<path transform="translate(1136,204)" d="m0 0h18l10 5 6 8 2 6v12l-5 10-7 6-7 3-14 1-85 3h-32l-8-4-6-8-2-5v-13l4-9 9-8 8-3z" fill="#030404"/>
<path transform="translate(443,242)" d="m0 0h13l90 10 9 4 7 8 3 9v10l-4 9-5 5-4 2h-17l-87-9-8-3-8-9-3-8v-12l5-10 6-5z" fill="#030303"/>
<path transform="translate(515,707)" d="m0 0h13l9 3 7 4 9 9 8-3 1 2-5 17-4 1-13-1-6-3v-3l6-2-5-5-9-3h-8l-9 4-7 8-3 8-2 11-9 5h-4v-16l-2 1-1 3h-2v2h-2l6 8v11l-2 4-7 3h-24l-2-1-1-26-3 3h-2v22l-1 1h-10l-1-1-1-20-7 20h-10l-5-14-2-1-1 14-1 1h-10v-50h13l7 19 3 3 4 2 8-22h13l1 1 1 8 4 1 1-10h13l11 1 6 3 3 3 2 4 2 1 7-14 10-10 9-5z" fill="#A8E0D0"/>
<path transform="translate(713,296)" d="m0 0 5 1 2 10 2 32 1 1 1 627 1 1v9l-1 2-1 198-5 1v146l1 9-5 4-2 2 1-6 2-9 1-147 3-1-1-179h-1l-1-379v-289l-1-19z" fill="#454F58"/>
<path transform="translate(821,254)" d="m0 0h1l-1 88-1 725v266l3 18 2 9 11 20 4 5v4l4 2 10 9 11 7v2l9 3 15 4 14 2 22 1v2h48v2h-14v2h-20l4-2-7-1v2l-4 1h-23l-20-2-9-1 9 3 7 1v1h-21v-6l-9-3-13-7v-2l-5-2-17-17-8-12-7-16-4-15 1-4 1-6 2 1 1 6-2-17v-201l1-57 1-794 1-4v-9l1-7z" fill="#3C444D"/>
<path transform="translate(1367,229)" d="m0 0 4 1 1 3 1 11 1 28 1 3 1 266 4 1 1 2v146l-5-1-1-4-1 649-2 1-1-28v-606l-1-436-2-28z" fill="#0D0F10"/>
<path transform="translate(1070,1270)" d="m0 0 11 2 8 4 9 9 6 13 1 6v10l-4 13-6 8-8 7-9 3h-12l-9-3-9-7-7-9-4-12v-15l4-11 6-8 8-6 7-3z" fill="#1EBC97"/>
<path transform="translate(813,257)" d="m0 0h4l-1 21-1 595-3 1-1-31-1 117h-1v-164l1-3v-320l-1-9 1-2 1-102 1-9-1-3v-77l1-5z" fill="#6F7E86"/>
<path transform="translate(1139,163)" d="m0 0h30v1l-7 1v1l10 1v1l11 1-4 2-79 3-183 8-21 2-5 2-6 2-4-1 7-2 2-4 5-5 5-2 9-1 33-1 3-1 74-2 4-1 40-1 3-1h53l17-2z" fill="#5A6972"/>
<path transform="translate(821,254)" d="m0 0h1l-1 15-1 11v58l-1 566v160l-1 181v21l-1 28h-1v-279l1-740 1-4v-9l1-7z" fill="#A0BDC8"/>
<path transform="translate(252,1336)" d="m0 0 2 3 4 17 5 12 6 11 2-1 8 11 8 8 6 5 14 7 12 3 10 1h17l151-7 37-2 47-2 62-3-1 3-4 2-30 1-30 2-23 1-9 1-52 2-13 1-36 1-9 1-72 3-28 2h-11l-15 1h-17l-3-5-8-3v-2l11-1-12-8-2-4-10-11-8-16-8-20z" fill="#080809"/>
<path transform="translate(877,1421)" d="m0 0h9l10 2 13 1h27v-2h7l2 2 14 1v-2h14v-2l6 1v2h9l1 2 83 3 5 1 117 5 55 2 40 1v-2h14l6-1v8h-47l-3-1-76-2-3-1-19-1-45-1-33-2-40-1-23-1-10-1-113-4-1-1-14-3-5-2z" fill="#171B1D"/>
<path transform="translate(226,1306)" d="m0 0h17l2 1 2 24 5 24 5 16 2 6-8 1-12-1-4-4-6-12v-4h-3l-4-16-1-11v-23z" fill="#030303"/>
<path transform="translate(818,256)" d="m0 0h1v20h-1l-1 793-1 20-2 1v-107l1-705 2-21z" fill="#1D2125"/>
<path transform="translate(887,964)" d="m0 0h8l8 4 6 8 2 5v13l-4 8-8 7-3 1h-10l-8-5-6-8-1-3v-14l4-8 7-6z" fill="#BD817A"/>
<path transform="translate(816,1300)" d="m0 0h2v27l2 20h2l3 13 11 20 4 5v4l4 2 10 9 11 7v2l9 3 15 4 14 2 22 1v2h48v2h-14v2h-20l4-2-7-1v2l-4 1h-23l-20-2-9-1 9 3 7 1v1h-21v-6l-9-3-13-7v-2l-5-2-17-17-8-12-7-16-4-15 1-4 1-6 2 1 1 6-1-12z" fill="#505C65"/>
<path transform="translate(887,1190)" d="m0 0 9 1 8 5 5 8 1 3v12l-5 10-8 5-8 1-10-4-6-8-2-5v-12l5-10 7-5z" fill="#1EBC97"/>
<path transform="translate(888,1077)" d="m0 0 9 1 8 6 4 7 1 3v13l-4 8-5 4-8 3-8-1-9-6-4-7-1-4v-10l3-8 8-7z" fill="#1EBC97"/>
<path transform="translate(979,1422)" d="m0 0h21l158 6 93 4v2h-3v2h-54l-117-5-5-1-112-4v-1l19-1z" fill="#4A555F"/>
<path transform="translate(889,853)" d="m0 0 8 1 8 5 4 6 2 7v7l-3 9-9 8-3 1h-10l-8-5-4-5-3-9 1-10 5-8 6-5z" fill="#1EBC97"/>
<path transform="translate(327,194)" d="m0 0h15l31 2 12 2 13 1 13 2 13 1 3 1 16 2 20 2 3 1 24 2 3 1 11 1 30 1 5 1v2l16 2 5 6-212-25h-22l-18 4-9 4h-2v2l-11 8-13 19-6 16-3 1-1-3 4-11 8-14 9-11 10-8 10-6 16-5z" fill="#515E67"/>
<path transform="translate(493,761)" d="m0 0 9 3 11 5v2l-6 4 4 4 11 4 9-1 8-4 6-7h14l-1 5-8 11-9 7-8 3h-15l-11-4-9-7-3-4-5 1-4 1 3-12z" fill="#BC827B"/>
<path transform="translate(813,257)" d="m0 0h4l-1 21-1 515h-1l-1-320h-3l-1-9 1-2 1-102 1-9-1-3v-77l1-5z" fill="#414A53"/>
<path transform="translate(1230,160)" d="m0 0h62l19 4 1 4-3 1v2h-8l-17-3h-25l-64 2h-12l-13-1v-1l-21-1-3-3 23-1 9-1 48-1z" fill="#384148"/>
<path transform="translate(271,203)" d="m0 0 15 2 2 1-2 4-6 5-11 15-4 7-1-2 9-16h-1l-6 8-7 12-5 14-3 12-1-4-1-1-14 2-6 1 1-7 2-5 7-3 5-1h10l1-5 4-11-2-5-12 1 2-4 11-11 8-5z" fill="#3C444D"/>
<path transform="translate(884,327)" d="m0 0h9v34h-7l-1-19-7 19-1 1h-5l-5-12-2-6-1 18h-8v-34h10l8 21 1 1 8-21z" fill="#1EBC97"/>
<path transform="translate(907,326)" d="m0 0h11l5 3 1 2v8l-4 4 4 2 1 2v8l-5 5-8 1h-13v-34z" fill="#1EBC97"/>
<path transform="translate(956,309)" d="m0 0h10l10 4 6 5v2l7-2-3 11-1 1h-14l-2-2 4-4-8-4h-10l-8 4-6 7-3 9-1 5-6 3h-2l-1-7 3-12 6-9 8-7 6-3z" fill="#1EBC97"/>
<path transform="translate(259,312)" d="m0 0h1v98l-2 545h-1v-589h1v-29h-1v-12l1-12z" fill="#A0BDC8"/>
<path transform="translate(817,904)" d="m0 0h2v160l-1 181v21l-1 28h-1v-279z" fill="#A0BDC8"/>
<path transform="translate(620,224)" d="m0 0 14 1 17 3 16 5 15 8 10 8 7 7 5 10 5 9 4 8 1 9-2 4-5-15-8-14-8-10-7-7-11-7-11-5-11-3-31-4-38-1v-1l32-1 5-1z" fill="#424B54"/>
<path transform="translate(935,351)" d="m0 0 7 1 9 4-4 3v2l6 3h11l8-4 5-5h10l-1 4-6 8-8 6-6 2h-14l-9-4-6-5-8 1 5-15z" fill="#BD817A"/>
<path transform="translate(1375,684)" d="m0 0h1l1 7-1 2-1 640h-1v-648z" fill="#3D454E"/>
<path transform="translate(1038,574)" d="m0 0h7l6 4 3 9-1 10-4 7-4 2h-8l-6-5-2-6v-9l3-7z" fill="#E5F5F0"/>
<path transform="translate(1139,163)" d="m0 0h30v1l-7 1v1l10 1v1l11 1-4 2-50 2h-24l-8-1v-1l-22-1v-1l-6-1v-1l26-1h24l17-2z" fill="#5B6871"/>
<path transform="translate(1299,215)" d="m0 0 7 1 2 2v12l-3 3-5 1-12 1h-10l-3-4v-11l3-4z" fill="#03B087"/>
<path transform="translate(1281,1309)" d="m0 0h5l3 5 7 1 2 5-2 3 2 8-4 3-6 1-2 4-5-1-2-4h-5l-3-3 1-10-2-1 1-6 1-1h8z" fill="#DDE4E6"/>
<path transform="translate(877,1296)" d="m0 0 8 6 5 5v16l-1 1h-19l-5-2v-16l9-8z" fill="#E7F6F2"/>
<path transform="translate(914,426)" d="m0 0h3v15h2v-6l4-4 5-1 4 3 1 7-2 4h-2v2l-3 2-4 4-5 1-21 1-1-2 1-2h-2v-6l3-2 2 2 5-1 1-3 4 1 3 1 1-2z" fill="#A0D0C4"/>
<path transform="translate(892,577)" d="m0 0 7 2 3 3v10l-2 3h-2l5 12h-7l-5-9-4-1v11h-6v-30z" fill="#E0F3ED"/>
<path transform="translate(986,576)" d="m0 0h11v18l3 1v6h-3v5h-7v-5h-14v-8z" fill="#E2F4EF"/>
<path transform="translate(1006,575)" d="m0 0h18v7h-13l1 4 2-1h6l5 4 1 2v8l-3 5-3 2h-11l-5-5v-5h6l1 3h7l-1-7h-5l-3 2-5-1 1-17z" fill="#D9F1EA"/>
<path transform="translate(236,503)" d="m0 0 5 3 2 3 1 6v71l-3 9-3 3-6-1-1-2h4l3-9 1-73-3-6-2-1v-2z" fill="#3C444D"/>
<path transform="translate(916,573)" d="m0 0 3 1v3l5 1 3 3 1 5-1 1h-5l-2-5-6 2v5h7l6 4 1 2v6l-4 5-5 2-1 3h-2l-1-3-7-3-2-3v-4h6l1 3h3l-1-5-7-4-2-4 1-6 4-4 4-1z" fill="#E3F4EF"/>
<path transform="translate(242,226)" d="m0 0h15l1 4 2 1-6 16-15 2-7 2-1 5-2 4h-1v-5l2-2 1-8 5-10 3-1 2-7z" fill="#A0BDC8"/>
<path transform="translate(234,618)" d="m0 0 5 1 3 3 1 5 1 22-1 56-4 6-1 1-7-1 5-5 1-3 1-50v-28l-5-6z" fill="#3A424B"/>
<path transform="translate(327,194)" d="m0 0h15l19 1v1l7 1v4l-20-2h-22l-18 4-9 4h-2v2l-11 8-13 19-6 16-3 1-1-3 4-11 8-14 9-11 10-8 10-6 16-5z" fill="#444E57"/>
<path transform="translate(1117,175)" d="m0 0h22l-2 4-4 1-78 3h-13l-1-4 4-1z" fill="#3C444D"/>
<path transform="translate(943,173)" d="m0 0h23v1l-22 1 13 1 3 3-2 1-41 2-21 2-5 2-6 2-4-1 7-2 2-4 5-5 2-1 25-1z" fill="#71848E"/>
<path transform="translate(946,576)" d="m0 0h10l4 4 1 2v6l-4 6-5 5 9 1v7h-21v-6l12-12 1-4-1-2-4 1-2 3h-6l-1-2 3-6z" fill="#E3F4EF"/>
<path transform="translate(1157,678)" d="m0 0 6 1v2l6-1v9l1 2-3 7-5 4h-7l-6-5-1-3v-8l3-5z" fill="#CBD1D3"/>
<path transform="translate(940,680)" d="m0 0 7 2 4 6v9l-5 6-2 1h-7l-6-5-1-2v-8l3-5 3-3z" fill="#E9F0F2"/>
<path transform="translate(1066,166)" d="m0 0h29v1l-17 1v1l20 1v1l7 1v1l-5 1-23 1h-30v-2l-4-1-16-1-4-3 40-1z" fill="#4F5A63"/>
<path transform="translate(979,170)" d="m0 0h27v1l11 1v1l-35 2-1 2 4 2-27 1-3-3-22-1v-1l10-1-39 2h-7l3-2 9-1 33-1 3-1z" fill="#505D66"/>
<path transform="translate(813,257)" d="m0 0h4l-1 21-1 70-2 4-2-4v-77l1-5z" fill="#536069"/>
<path transform="translate(648,278)" d="m0 0h11l10 2 3 7-1 6-3 3-16-1-5-3-1-1v-11z" fill="#A1C1C9"/>
<path transform="translate(816,1300)" d="m0 0h2v27l2 18 1 2v6l-2-2-1 5h2l3 8 2 7 2 6h2l3 6v2h2l1 4 3 1 7 8 4 4v2l-6-2-12-12-8-12-7-16-4-15 1-4 1-6 2 1 1 6-1-12z" fill="#6F828C"/>
<path transform="translate(979,1422)" d="m0 0h21l50 2v2h-6v2h30l23 1v1h-25l-112-4v-1l19-1z" fill="#7E949E"/>
<path transform="translate(821,1347)" d="m0 0 2 4 2 9 11 20 4 5v4l4 2 10 9 11 7-1 3 5 2 1 2-6-2-2-1v-2l-6-1-6-5-8-7-5-6-3-3v-2h-2l-3-5v-3h-2l-4-7-2-8-1-6h-2v-6l2 1z" fill="#15181B"/>
<path transform="translate(602,1403)" d="m0 0h13v1l-19 2-41 2-9 1-52 2-13 1-36 1-9 1-22 1h-28v-1l43-2 10-1 37-2h14l31-2 39-2z" fill="#434C55"/>
<path transform="translate(958,327)" d="m0 0 4 1 6 3-2 5-4-1v5l4 1 4 2v5l-5 6h-3v3h-4v-2l-7-2-1-4 5-1 3 1-1-5-5-3-1-7 5-5h2z" fill="#FBFCFB"/>
<path transform="translate(589,745)" d="m0 0h5v25h-5-3l-6-1-3-4v-10l5-5 5 1 1 1z" fill="#BC817A"/>
<path transform="translate(459,214)" d="m0 0 45 5 32 4v3l-2 1-16-1-56-7-3-3z" fill="#3C444D"/>
<path transform="translate(1072,583)" d="m0 0 6 1 3 3 1 3v9l-3 5-2 1h-7l-4-4-1-3v-7l3-6z" fill="#D9F1EA"/>
<path transform="translate(1090,583)" d="m0 0h6l4 4 1 2v10l-4 5-7 1-5-5-1-9 3-6z" fill="#DCF2EB"/>
<path transform="translate(257,236)" d="m0 0 2 3-5 14-3 12-1-4-1-1-14 2-6 1 1-7 2-5 7-3 5-1h10l1-5z" fill="#3B434C"/>
<path transform="translate(502,913)" d="m0 0h4v2l4-1h9v2l3 1v9h-2l-1-8-5-1v10h-10l-5-2-1-1v-7l-7-1 1 2 5 3-1 4-1 1h-5l-2-3h3l3-1-5-2-1-3 2-3h5l5 1z" fill="#92A9B0"/>
<path transform="translate(1314,504)" d="m0 0 4 2 3 7v217h-1v-94h-33v-1h33l-1-124-4 1-2-2v-3l2-1z" fill="#A9E1D1"/>
<path transform="translate(1277,539)" d="m0 0h6l6 4 2 3-1 4-6 6h-8l-6-5-1-5 4-5z" fill="#C1E9DD"/>
<path transform="translate(860,427)" d="m0 0h6l5 5v9l-4 5-7 1-5-4-1-8 3-6z" fill="#101214"/>
<path transform="translate(814,1127)" d="m0 0h1l1 200 2 13v9h-1l-2-11-1 6-2-1v-8l1-7z" fill="#020202"/>
<path transform="translate(1078,1297)" d="m0 0 4 1-6 19-2 4-3-1-3-8v-1l-6-2-3-2v-3z" fill="#E2F4EF"/>
<path transform="translate(253,1322)" d="m0 0 3 2 3 22 5 15 10 19 8 10 6 5 4 4h-3l-8-7-8-9-6-6-8-15-5-18-2-18z" fill="#8FA8B3"/>
<path transform="translate(984,793)" d="m0 0h5l4 2 2-2h5l2 3 1-3h8l2 2v8h-3l-1-8-2 1-1 7-3 1-1-2-3 2-5-1h-4l-5 1-3-3v-6z" fill="#A5B5BB"/>
<path transform="translate(542,749)" d="m0 0h6l5 4 1 7h-12l2 3 9-1-1 4-4 3-7-1-3-4-1-9 3-5z" fill="#C28D86"/>
<path transform="translate(1224,300)" d="m0 0h6l3 3 2 15h-17l2-14z" fill="#A8DED0"/>
<path transform="translate(236,410)" d="m0 0 5 3 2 3v42l-3 5-2 2-5-1v-2l4-4 1-5 1-35-2-5h-2z" fill="#3C444D"/>
<path transform="translate(1298,789)" d="m0 0 4 1 1 4 7-1 1 1v9h-9l-3 1-7-2v-2h-2v2l-5 1-2-2v-6h3l-1 5h3l-1-6h5l1-1h5z" fill="#66CEB4"/>
<path transform="translate(933,656)" d="m0 0h17l5 2h29l5-1h9l9 2v1l-51 1h-35l1-3 2-1z" fill="#07B289"/>
<path transform="translate(641,1399)" d="m0 0h2l-1 3-4 2h-36l-45 2v-2l5-1 60-3z" fill="#0B0D0E"/>
<path transform="translate(1223,297)" d="m0 0h7l5 4 1 2 2 12 2 4-1 2h-25v-3l2-5 1-9 3-5zm1 3-4 4-2 14h17l-2-15-3-3z" fill="#101214"/>
<path transform="translate(1380,544)" d="m0 0h1v146l-2-1-1-5-1-1v-5l2-2v-122h-2v-7h3z" fill="#3C444D"/>
<path transform="translate(1256,986)" d="m0 0h5l4 2 3-2h5l1 7-2 6h-5l-3-2-2 2h-5l-1-4-5 2v-4h3l1-6z" fill="#BFE8DC"/>
<path transform="translate(557,750)" d="m0 0h5 2 6l3 3 1 2v14h-5l-1-13-4-1-1 1-1 13-5-1z" fill="#BD817A"/>
<path transform="translate(1278,216)" d="m0 0h10v3l-3 2h3v3h-2v2h2v3l-4 1 4 1v4h-10l-3-4v-11z" fill="#0E1415"/>
<path transform="translate(1013,333)" d="m0 0h4v19l-5-1-1 1h-5l-3-3v-8l4-4 6 1z" fill="#BD817A"/>
<path transform="translate(906,176)" d="m0 0h14v1l10 1 1 3-35 3-5 2-6 2-4-1 7-2 2-4 4-3z" fill="#606F79"/>
<path transform="translate(716,1177)" d="m0 0h1l1 147 1 9-5 4-2 2 1-6 2-9z" fill="#3C444D"/>
<path transform="translate(864,1335)" d="m0 0 3 1v2h5l1 1 2-4 2 1v2l6 1-1-3h3l1 3 4-1 2 3-1 4-5 1h-8l-5-1h-2v-5h-2v5h-5z" fill="#B0E3D4"/>
<path transform="translate(713,296)" d="m0 0 5 1 2 10 1 13v19l-2 3-2-1-2-31z" fill="#5C6A73"/>
<path transform="translate(1095,166)" d="m0 0h16l5 2v1l6 1 3 3h-20l-8-1v-1l-22-1v-1l-6-1v-1z" fill="#323940"/>
<path transform="translate(327,194)" d="m0 0h15l19 1v1l7 1v4l-20-2h-28v-1h-2l-3-1 5-2z" fill="#414A53"/>
<path transform="translate(902,1420)" d="m0 0h23l48 1v2h-14v2h-20l4-2-7-1v2l-10 1-14-1v-1l10-1-20-1z" fill="#A0BDC8"/>
<path transform="translate(1314,701)" d="m0 0 5 3v16l-5 3-2 7-5-2 1-4 2-3 2-17z" fill="#1EBC97"/>
<path transform="translate(1070,667)" d="m0 0h1v28l4 1 2 7 3 10-3 3-6-1-1 3-1-2z" fill="#03B087"/>
<path transform="translate(1050,1424)" d="m0 0 50 2v2l-3 1h-23l-30-1v-2h6z" fill="#525E68"/>
<path transform="translate(889,1201)" d="m0 0 4 1 6 7-1 4-4-2-1 11-4 1-1-2-1-11-2 2h-3l1-5z" fill="#E0F3ED"/>
<path transform="translate(1295,295)" d="m0 0h7l3 3v8l-5 4-6-1-3-4 1-7z" fill="#14171A"/>
<path transform="translate(967,1299)" d="m0 0h8l4 2v2h2l3 6v8l-3 5-5 4-7 1-7-4-1-5 3 1v2l5 2 9-1 3-8-1-7-2-4-9-1-4 1 1 5h-6v-6l3 1v-2h4z" fill="#798F99"/>
<path transform="translate(1e3 576)" d="m0 0h18v4l-2 1h-11v8h2l-1 4-4 1-3-1z" fill="#EFF8F5"/>
<path transform="translate(1289,161)" d="m0 0 14 1 9 3v3l-3 1v2h-8l-4-1v-2l-19-2v-1l8-1z" fill="#2A3036"/>
<path transform="translate(940,793)" d="m0 0h5l3 2 2-2h5l2 3h-5l5 3-1 4-5 1-3-2-3 2-6-1-1-2v-6z" fill="#B8C7CA"/>
<path transform="translate(952,430)" d="m0 0h7l3 4-1 8-5 3-6-2-1-2v-8z" fill="#111315"/>
<path transform="translate(889,1088)" d="m0 0 4 1 6 7-1 4-4-3-1 13-3 1-1-1-1-13-2 2-4-1 2-5z" fill="#E1F3EE"/>
<path transform="translate(1374,534)" d="m0 0h1l1 7 4 1-1 2-3-1-1 139h-1z" fill="#3F4750"/>
<path transform="translate(975,338)" d="m0 0 7 1 2 3-1 5h-8l1 2 8-1-2 4-2 1h-6l-4-4v-6z" fill="#BF8A84"/>
<path transform="translate(925,430)" d="m0 0 5 1 3 5-1 6-3 3h-6l-3-3v-8l3-3z" fill="#0F1113"/>
<path transform="translate(890,864)" d="m0 0h3l7 8-1 3-5-2-1 13-4-1-1-12-2 2h-3l1-5z" fill="#D1EEE6"/>
<path transform="translate(248,272)" d="m0 0h2l-1 8h-10l-13 4-2 4 1-12 13-2z" fill="#A9E1D1"/>
<path transform="translate(1251,1432)" d="m0 0 43 1v2l-6 1h-10v-1h-7l-1 3h-21l-22-1v-1h21v-2h3z" fill="#3C444D"/>
<path transform="translate(476,1409)" d="m0 0 18 1v1l-13 1-36 1-9 1-22 1h-28v-1l43-2 10-1z" fill="#49545E"/>
<path transform="translate(815,1023)" d="m0 0h1l1 7v43l-1 16-2 1v-66z" fill="#0C0E0F"/>
<path transform="translate(877,1296)" d="m0 0 8 6 5 5v16l-1 1h-19l-5-2v-16l9-8zm0 2-10 8v16l21 1v-16l-8-8z" fill="#1EBC97"/>
<path transform="translate(823,1370)" d="m0 0 3 3 1 4h2l3 6v2h2l1 4 3 1 7 8 4 4v2l-6-2-12-12-8-12 1-4z" fill="#62727B"/>
<path transform="translate(987,338)" d="m0 0h11l2 2v12h-4l-1-10h-3l-1 10-4 1-1-1v-13z" fill="#BC817B"/>
<path transform="translate(973,1421)" d="m0 0 6 1v2h9l1 3h-31l-25-1-1-2h4v-2h7l2 2 14 1v-2h14z" fill="#3C444D"/>
<path transform="translate(890,977)" d="m0 0 3 1 1 13 3-3h2l-1 4-6 7-4-2-6-7 1-2 4 2 1 1 1-13z" fill="#FDFDFD"/>
<path transform="translate(1039,581)" d="m0 0 5 1 2 3v10l-2 4h-5l-2-4v-10z" fill="#1EBC97"/>
<path transform="translate(982,174)" d="m0 0h22v1l9 1-3 2h-37v-1l-15-1v-1z" fill="#788C96"/>
<path transform="translate(1163,1305)" d="m0 0h6l4 6-2 6-2 2h-5l-3-4v-8z" fill="#91ADB5"/>
<path transform="translate(814,829)" d="m0 0h1v44l-3 1v-44z" fill="#48535C"/>
<path transform="translate(1093,1090)" d="m0 0h6 4l5 1 1 1v7h-7v-2l-4 2-5-1-1-1z" fill="#959FA2"/>
<path transform="translate(1229,1431)" d="m0 0 22 1v2h-3v2h-24l-24-1v-1l22-1v-1z" fill="#6C7F89"/>
<path transform="translate(1077,170)" d="m0 0h21v1l7 1v1l-5 1h-37v-1l-7-1v-1z" fill="#758994"/>
<path transform="translate(1324,171)" d="m0 0 7 3 11 8 7 7 1 6-8-6-7-7-11-7-2-1v-2z" fill="#0E0F11"/>
<path transform="translate(938,430)" d="m0 0h6l2 2v12l-9 1-2-2v-5l3-2h5v-3l-7 2v-3z" fill="#131619"/>
<path transform="translate(884,431)" d="m0 0 5 1 2 2v12l-4-1-1 1h-5l-2-4 1-3 7-2v-2l-7 1 2-4z" fill="#101215"/>
<path transform="translate(944,174)" d="m0 0h27v1l10 1 4 3-27 1-3-3-22-1v-1z" fill="#31373E"/>
<path transform="translate(252,1336)" d="m0 0 2 3 4 17 5 12 6 11 2-1 5 7-1 2-4-1-6-7-9-21-3-8z" fill="#111316"/>
<path transform="translate(940,680)" d="m0 0 7 2 4 6v9l-5 6-2 1h-7l-6-5-1-2v-8l3-5 3-3zm-3 3-5 5v9l5 5h7l5-5 1-6-3-6-2-2z" fill="#1D2025"/>
<path transform="translate(951,973)" d="m0 0 5 2h2l1-1h5l1 5-5 1h5v2l-6 1-4-1-4 1-2-1-1-5z" fill="#878F92"/>
<path transform="translate(477,909)" d="m0 0h2l1 5h5l2 4-1 6-2 2h-7l-1-2z" fill="#1B1F23"/>
<path transform="translate(1278,542)" d="m0 0 6 1 4 5-6 5h-5l-5-5 4-5z" fill="#1EBC97"/>
<path transform="translate(861,430)" d="m0 0 5 1 2 3-1 8-3 2-4-1-2-2v-8z" fill="#E8F1F1"/>
<path transform="translate(1220,985)" d="m0 0h7l2 10v4l-4-2-1-2-2 4-3-1v-11z" fill="#9FDECD"/>
<path transform="translate(648,278)" d="m0 0h6v3l-3 3 4-1v2h-2v2h2l-1 3-1-2h-2l4 4v2h-6l-3-3v-11z" fill="#0B0D0E"/>
<path transform="translate(1314,170)" d="m0 0 6 2 11 6 12 11 11 15 1 4-4-4-8-11-12-11-15-9-3-2z" fill="#A0BDC8"/>
<path transform="translate(531,910)" d="m0 0 2 1v16h-7l-2-2v-7l2-3h5z" fill="#C1D6DB"/>
<path transform="translate(1300,312)" d="m0 0 7 1 3 3v8l-2 1-2-8h-15l-2 8h-2v-8l4-4z" fill="#0E1012"/>
<path transform="translate(855,467)" d="m0 0h6l2 4v7l-3 2h-6v-12z" fill="#B1C3CA"/>
<path transform="translate(1295,986)" d="m0 0 5 1 1 2v7l-2 3h-6l-1-1v-9z" fill="#98DCCA"/>
<path transform="translate(459,913)" d="m0 0h4l5 1 4-1 2 2v11h-2l-1-9-3-1v9h-3v-9l-3 1-1 9h-2z" fill="#22272C"/>
<path transform="translate(1157,678)" d="m0 0 5 1-1 2-7 1-3 4v8l5 5 9-1 3-9 2 2-3 7-5 4h-7l-6-5-1-3v-8l3-5z" fill="#22262B"/>
<path transform="translate(1256,986)" d="m0 0h5l2 2v8l-2 2-5-1v-2l-5 2v-4h3l1-6z" fill="#4BC7A9"/>
<path transform="translate(510,914)" d="m0 0h9v2l3 1v9h-2l-1-8-5-1v10l-5-1v-2l-4 1-2-3h8l-1-6-2-1z" fill="#B8CFD5"/>
<path transform="translate(935,226)" d="m0 0h8v3h-6l1 2 4 1 2 2-1 6-2 2h-5l-2-2v-3l6 1v-3h-6v-8z" fill="#1A2729"/>
<path transform="translate(652,281)" d="m0 0 5 1 1 2 3-3 4 2v2h-3l3 2-1 5-5-1h-2-5l-1-3 3 1 1-2h-2v-2h2v-2l-4 1z" fill="#EAF1F2"/>
<path transform="translate(1265,1434)" d="m0 0h15v1h8l13-1v1l-5 1h-7v2h-19l-20-1v-1l15-1z" fill="#8198A2"/>
<path transform="translate(1295,1102)" d="m0 0 4 1 2 3v6l-2 3-6-1-1-2v-7z" fill="#A77A77"/>
<path transform="translate(1298,789)" d="m0 0 3 1h-2v11l-3 1-2-2 1-5h-1v6l1 2-3-1v-2h-2v2l-5 1-2-2v-6h3l-1 5h3l-1-6h5l1-1h5z" fill="#7FD6C0"/>
<path transform="translate(1294,1219)" d="m0 0 5 1 2 3-1 7-2 2-4-1-2-2v-8z" fill="#B1817D"/>
<path transform="translate(984,793)" d="m0 0h5l4 3v5l-5 3-5-1-1-2v-6z" fill="#DAE7E9"/>
<path transform="translate(1268,1218)" d="m0 0 5 1 1 1v9l-2 2-5-1-1-1v-9z" fill="#9E7370"/>
<path transform="translate(1294,870)" d="m0 0h5l2 3v6l-2 3h-5l-2-3v-6z" fill="#8D6D6C"/>
<path transform="translate(1284,870)" d="m0 0h5l2 4-1 7-1 1h-5l-2-2v-8z" fill="#957473"/>
<path transform="translate(1268,870)" d="m0 0h5l2 3v6l-2 3h-5l-2-3v-6z" fill="#936E6D"/>
<path transform="translate(1230,160)" d="m0 0h42l-1 2-19 1h-16v-1l-6-1z" fill="#5F6F79"/>
<path transform="translate(687,246)" d="m0 0 4 2 8 8 5 10 5 9 4 8 1 9-2-3-5-13-7-11-2-4-2-5-9-9z" fill="#A0BDC7"/>
<path transform="translate(274,216)" d="m0 0v3l-9 16-5 10-3-1 2-7 8-13z" fill="#A0BEC8"/>
<path transform="translate(906,176)" d="m0 0h14v1l10 1 1 3-20 1-4-3-6-1v-1z" fill="#343B43"/>
<path transform="translate(290,1414)" d="m0 0 16 2 4 1 15 1v1l-15 1h-17z" fill="#61717B"/>
<path transform="translate(821,1354)" d="m0 0 3 3 8 16 7 11 1 5-5-5-9-15-5-12z" fill="#70838D"/>
<path transform="translate(1380,544)" d="m0 0h1v39l-2-1v-28h-2v-7h3z" fill="#62727C"/>
<path transform="translate(984,170)" d="m0 0h22v1l11 1v1l-13 1h-23v-3z" fill="#1C2024"/>
<path transform="translate(932,1113)" d="m0 0h4v2h2v7l-3 3-4-1-2-2v-6z" fill="#A0BEC8"/>
<path transform="translate(1257,1102)" d="m0 0h6l2 10-2 2-7-1 1-6-1-3z" fill="#BB9C9A"/>
<path transform="translate(914,426)" d="m0 0h3v16l-4 4-6-1-2-5 4 1 3 1 1-2z" fill="#16181B"/>
<path transform="translate(222,382)" d="m0 0h1v20l-5-4-1-9 3-6z" fill="#ACE2D3"/>
<path transform="translate(948,1421)" d="m0 0h25v2h-14v2h-20v-1l7-2z" fill="#697A84"/>
<path transform="translate(1283,1219)" d="m0 0h5l2 2v8l-2 2-5-1-1-1v-9z" fill="#A47672"/>
<path transform="translate(929,793)" d="m0 0h5l2 2v7l-3 2-5-1-1-1v-7z" fill="#111416"/>
<path transform="translate(1025,1423)" d="m0 0 25 1v2l-6 1h-25v-2h6z" fill="#57646E"/>
<path transform="translate(1231,1101)" d="m0 0h6l3 3-1 6 1 4-3-1-1-4-2 1-1 3h-2z" fill="#D3AEAA"/>
<path transform="translate(985,339)" d="m0 0h1l1 13 3 2-2 1-11 1-2 1-1-4 8-2 1-2-7 1-1-3 8-1v-6z" fill="#F7FBF9"/>
<path transform="translate(1294,219)" d="m0 0h6l1 3h-5l5 2v5l-2 2-6-1-1-8z" fill="#97DBC9"/>
<path transform="translate(1250,218)" d="m0 0h11l5 5-3 2-6-3-7 1-2 2-4-1 2-4z" fill="#111517"/>
<path transform="translate(462,737)" d="m0 0h9l1 1v6l-2 2h-6l-2-1z" fill="#FDFDFD"/>
<path transform="translate(925,226)" d="m0 0 5 1 1 1v6l-4 4 5 1v3h-10l1-4 4-4 1-5-6 2v-3z" fill="#172425"/>
<path transform="translate(933,999)" d="m0 0 5 3v6l-3 3h-4l-2-3 1-7z" fill="#A0C0C8"/>
<path transform="translate(907,346)" d="m0 0h9l2 2-1 5-1 1-8 1-1-1z" fill="#ACE2D2"/>
<path transform="translate(1169,1321)" d="m0 0 5 1v2h2l2 4-1 5-3-1v-7h-16v6l-3 1v-6l5-4z" fill="#98B9BD"/>
<path transform="translate(1050,1424)" d="m0 0 26 1-2 3h-30v-2h6z" fill="#3C444D"/>
<path transform="translate(945,464)" d="m0 0h2v14h-6l-2-2v-6h2v-2h4z" fill="#A1B3BA"/>
<path transform="translate(1307,1437)" d="m0 0 2 4v2h-25l3-2z" fill="#687983"/>
<path transform="translate(324,196)" d="m0 0h10v1l-14 1v2l-12 3-9 4-2-1 10-7 5-2z" fill="#64747E"/>
<path transform="translate(1291,1314)" d="m0 0 5 1 2 5-2 3 2 8-4 3-7 1v-2l7-1-1-4-1-1 1-7v-3l-4-2z" fill="#788E96"/>
<path transform="translate(950,1087)" d="m0 0h5l1 1v9l-2 3-6-1 2-2 4 1-1-2-5-1v-6z" fill="#5A6065"/>
<path transform="translate(1284,986)" d="m0 0 5 1 1 8-2 3-5-1-1-1v-8z" fill="#7FD6C1"/>
<path transform="translate(907,227)" d="m0 0 6 1 1 5-5 7h5v2l-9 1-1-2 6-7 1-4h-4v2h-3l2-4z" fill="#11201F"/>
<path transform="translate(1281,1309)" d="m0 0h5l3 6h-2l-2-4h-3l-2 4h-5l-1 4 1 2v6l-2 5-2-1 1-10-2-1 1-6 1-1h8z" fill="#5F7078"/>
<path transform="translate(1117,1087)" d="m0 0h2v12h-7l-2-3 1-5 5-1z" fill="#5B6266"/>
<path transform="translate(1231,986)" d="m0 0h6l1 3h-2l3 6-1 2h-2l-1 3-5-3v-3h3l1-2-4-1z" fill="#5DCCB0"/>
<path transform="translate(887,1207)" d="m0 0h4l6 3 1-2 1 4-2 1-3-2-1 11-4 1-1-2z" fill="#A9E1D1"/>
<path transform="translate(922,465)" d="m0 0h2v13h-7l-1-1v-7l6-1z" fill="#ABBCC3"/>
<path transform="translate(303,258)" d="m0 0 6 1v2l4 2v5l-1-4h-2v4h-2l-1-2-5 1-1-1v-7z" fill="#A1A9AE"/>
<path transform="translate(381,243)" d="m0 0h3l-1 6-3 8h-2v-7l-6-1v-2z" fill="#0F1113"/>
<path transform="translate(813,257)" d="m0 0h4l-1 21h-1l-1-6-2 4h-1l1-16z" fill="#4B575F"/>
<path transform="translate(975,860)" d="m0 0 7 1 1 5-1 3-4 1-2-1-1 4-1-1v-11z" fill="#21262B"/>
<path transform="translate(928,468)" d="m0 0 5 1 1 1v6l-2 2h-5v-2h-2l1-7z" fill="#A4B9BD"/>
<path transform="translate(974,1202)" d="m0 0h7l1 2v6l-5 1-1 3h-2z" fill="#586063"/>
<path transform="translate(1037,1200)" d="m0 0h2v12l-5 1-3-2v-6l2-2h3z" fill="#63686C"/>
<path transform="translate(967,970)" d="m0 0h2v4h5l1 7-2 2h-6z" fill="#5E6468"/>
<path transform="translate(1245,1100)" d="m0 0 5 3v2l-4-1 4 4-1 5-4 2-3-2 1-3 1 1 1-3-3-1 1-5h2z" fill="#AE817D"/>
<path transform="translate(1037,1089)" d="m0 0h7l1 2v6l-5 1-1 3h-2z" fill="#82888B"/>
<path transform="translate(987,970)" d="m0 0 2 2v11h-7l-1-1v-7l5-1z" fill="#5E6468"/>
<path transform="translate(930,970)" d="m0 0h6l2 2-1 7 1 4h-2l-2-4h-2l-2 3z" fill="#828A8F"/>
<path transform="translate(903,1421)" d="m0 0h19l5 1-1 3h-17l-13-1 1-2h6z" fill="#3C444D"/>
<path transform="translate(1010,971)" d="m0 0h2v12h-7l-1-7 2-2h3z" fill="#585D61"/>
<path transform="translate(908,332)" d="m0 0h6l3 2-1 5-1 1h-8v-7z" fill="#B2E4D5"/>
<path transform="translate(975,887)" d="m0 0 5 1 1 7-2 3-5-1-1-1v-7z" fill="#A1C2C9"/>
<path transform="translate(996,887)" d="m0 0 5 1 1 1v7l-2 2-5-1-1-7z" fill="#A1C3C9"/>
<path transform="translate(1026,792)" d="m0 0 5 3v4h-7v2l6-1v3l-5 1-3-3v-6z" fill="#33393C"/>
<path transform="translate(980,1228)" d="m0 0 4 1 1 2v7l-2 2-4-1-1-2v-7z" fill="#A0BDC8"/>
<path transform="translate(1013,1199)" d="m0 0 7 2v5l-2 2h-4v4h-2v-12z" fill="#545B5F"/>
<path transform="translate(1238,869)" d="m0 0 4 2v2h-2l-1 2 4 2-1 4-4 2-4-4 2-1v2h2l-3-5v-4z" fill="#B08682"/>
<path transform="translate(906,544)" d="m0 0h2v12h-6l-2-3 1-5 5-1z" fill="#8DD9C5"/>
<path transform="translate(1370,1360)" d="m0 0h2l-1 10-3 10-3 1-1-3 5-16z" fill="#262D30"/>
<path transform="translate(1257,793)" d="m0 0 7 1v8l-6 1-2-2v-6z" fill="#7ED6C0"/>
<path transform="translate(973,467)" d="m0 0 5 1 1 5-2 4h-5l-2-3 1-5z" fill="#B4C9CE"/>
<path transform="translate(285,207)" d="m0 0 1 3-6 5-11 15-4 7-1-2 9-16 9-10z" fill="#2E343B"/>
<path transform="translate(1009,1115)" d="m0 0 4 1 1 2v6l-4 3-3-2v-8z" fill="#A1C1C9"/>
<path transform="translate(942,546)" d="m0 0h6l1 1v7l-5 1v3h-2z" fill="#8BD9C4"/>
<path transform="translate(271,203)" d="m0 0 7 1v1l-7 1-3 5-9 4-7 6-2-1 8-8 8-5z" fill="#A0BDC8"/>
<path transform="translate(821,1347)" d="m0 0 2 4 1 6h-2l6 15-3 1-2-3-2-8-1-6h-2v-6l2 1z" fill="#1B1E22"/>
<path transform="translate(814,1327)" d="m0 0h2l2 13v9h-1l-2-11-1 6-2-1v-8l1-7z" fill="#090B0C"/>
<path transform="translate(1282,1319)" d="m0 0 5 1 1 6-2 2h-6l-1-7z" fill="#A3B0B7"/>
<path transform="translate(950,1227)" d="m0 0h3l2 4-1 7-4 1-2-2v-8z" fill="#A0BEC8"/>
<path transform="translate(815,1058)" d="m0 0h1l1 15-1 16-2 1v-31z" fill="#050606"/>
<path transform="translate(988 1e3)" d="m0 0 4 1 2 7-2 3-4 1-2-3v-7z" fill="#BCD4D8"/>
<path transform="translate(908,793)" d="m0 0 5 1 1 1v9h-7l-2-4 2-2 4-1 1-2-6 1v-2z" fill="#181B1E"/>
<path transform="translate(962,1201)" d="m0 0 5 1 1 1v6l-2 2-5-1-1-6z" fill="#6B7074"/>
<path transform="translate(1007,1088)" d="m0 0 5 1 1 1v6l-2 2-5-1-1-6z" fill="#656A6E"/>
<path transform="translate(1058,974)" d="m0 0 5 2v6l-2 2-5-1-1-1 1-7z" fill="#686E72"/>
<path transform="translate(876,793)" d="m0 0 6 1v10h-7l-1-5 5-2 1-2-6 1z" fill="#101215"/>
<path transform="translate(928,543)" d="m0 0h1v12l-5 1-2-2v-6l4-2z" fill="#86D7C2"/>
<path transform="translate(271,234)" d="m0 0h2l-6 18-3 1-1-3 4-11z" fill="#434D56"/>
<path transform="translate(1013,857)" d="m0 0h2l4 8 4-8h1v13h-1l-1-6-3 6-2-1-2-6-1 7h-1z" fill="#171A1E"/>
<path transform="translate(887,583)" d="m0 0h6l3 3-1 4-1 1h-7z" fill="#1EBC97"/>
<path transform="translate(476,1409)" d="m0 0 18 1v1l-13 1h-24v-1z" fill="#758993"/>
<path transform="translate(1235,1216)" d="m0 0 4 2 1 3-4-1 3 3-1 3-2-1 1 2h2v2l-4 2-4-5 3 1 1-3-3-1v-5z" fill="#B68884"/>
<path transform="translate(1123,1090)" d="m0 0 5 1 1 5-3 4-4-1-2-5z" fill="#1E2226"/>
<path transform="translate(912,546)" d="m0 0 5 2v6l-2 2-5-1-1-6z" fill="#85D7C2"/>
<path transform="translate(882,544)" d="m0 0h5l1 4-5-1 3 2 2 1v5l-5 2-3-2 1-3 1 2h4v-2l-5-2-1-4z" fill="#A9E1D1"/>
<path transform="translate(967,1299)" d="m0 0h8l4 2-3 2-7-1-4 1 1 5h-6v-6l3 1v-2h4z" fill="#88A0AA"/>
<path transform="translate(992,974)" d="m0 0h5l1 1v7l-1 1h-5l-2-3 1-5z" fill="#1B1F23"/>
<path transform="translate(1283,1102)" d="m0 0h7v2h-5l1 2 4 1 1 5-3 3-5-1-1-3 5 1v-3h-5z" fill="#9D7776"/>
<path transform="translate(1072,588)" d="m0 0 4 1 1 2v6l-2 3-4-1v-9z" fill="#1EBC97"/>
<path transform="translate(1e3 173)" d="m0 0 22 1v1l9 1v1h-22l-11-1 2-1z" fill="#3C444D"/>
<path transform="translate(1050,1203)" d="m0 0 4 2 1 4-2 4-5-1-1-1v-6z" fill="#6A7275"/>
<path transform="translate(1039,974)" d="m0 0 4 1 2 5-3 4-4-1-1-1v-6z" fill="#1B1F23"/>
<path transform="translate(963,860)" d="m0 0 4 1 2 5-3 4-4-1-1-1v-6z" fill="#1D2125"/>
<path transform="translate(1091,588)" d="m0 0 4 1 1 2v6l-2 3h-3l-1-2v-8z" fill="#1EBC97"/>
<path transform="translate(938,436)" d="m0 0h5v7l-2 2-5-1-1-1v-5z" fill="#4C5255"/>
<path transform="translate(930,1084)" d="m0 0h6l2 5-3 3h-4l-1 4z" fill="#5B6165"/>
<path transform="translate(505,915)" d="m0 0 5 1 1 6-7 1 4 1h3l-2 2-5 1-3-2v-7h2v2h5l-1-3z" fill="#1C2024"/>
<path transform="translate(1315,793)" d="m0 0 5 1v2h-3v2h2v5l-4 1v-2h-3l1-8z" fill="#57CAAE"/>
<path transform="translate(583,755)" d="m0 0 5 1 1 1v6l-2 2-4-1-1-1v-6z" fill="#FDFDFD"/>
<path transform="translate(482,743)" d="m0 0h2v16l-4-5-3-3v-2h2v-2h2z" fill="#FDFDFD"/>
<path transform="translate(360,241)" d="m0 0h6l1 2h-6v3l5 1 1 1v5l-2 2-5-1-1-3 6 2v-5l-5 1-1-1v-6z" fill="#15181B"/>
<path transform="translate(1256,1218)" d="m0 0h7v2h-5l1 2 4 1 1 1v5l-5 2-3-2v-2l6 1-1-3h-5z" fill="#B2807C"/>
<path transform="translate(490,914)" d="m0 0h5l2 3-6-1 1 2 5 3-1 4-1 1h-5l-2-3h3l3-1-5-2-1-3z" fill="#1B1E22"/>
<path transform="translate(868,721)" d="m0 0 7 1-2 7-5 1-2-2v-5z" fill="#1EBC97"/>
<path transform="translate(890,547)" d="m0 0h5l1 1v8h-6l-1-5z" fill="#98DCCA"/>
<path transform="translate(952,546)" d="m0 0 5 1 1 5-2 3-5-1-1-1v-5z" fill="#82D6C1"/>
<path transform="translate(874,469)" d="m0 0h10l1 1v8h-1l-1-6-2-1-1 7h-2l-1-6h-2v7h-2v-9z" fill="#768C95"/>
<path transform="translate(1296,298)" d="m0 0h5l1 1v6l-5 2-3-3 1-5z" fill="#A7D9CF"/>
<path transform="translate(286,1306)" d="m0 0 4 1 1 3-1 2 2 1-2 4-5-1v-9z" fill="#B8D2D6"/>
<path transform="translate(919,793)" d="m0 0 5 1 1 3-6-2v7l6-2-2 4-1 4h-3l1-2-4-5 1-7z" fill="#1E2226"/>
<path transform="translate(992,466)" d="m0 0 4 2v9h-6l-1-5 5-1v-2l-5 1 1-3z" fill="#A7C0C9"/>
<path transform="translate(874,427)" d="m0 0h3v19h-3z" fill="#040404"/>
<path transform="translate(898,228)" d="m0 0h4v15h-3l-1-11-3 1v-3z" fill="#152424"/>
<path transform="translate(1253,223)" d="m0 0 7 1 2 4-3 1-5-1-5 1v-4z" fill="#111C1C"/>
<path transform="translate(1267,1102)" d="m0 0h7v2h-5v2l5 1 1 4-4 4-5-3 3-1h3v-2h-5z" fill="#AE7C77"/>
<path transform="translate(1e3 793)" d="m0 0h7l2 2v8h-3l-1-8-2 1-1 7-2 1z" fill="#1A1E22"/>
<path transform="translate(866,194)" d="m0 0 2 1-7 6-7 4-12 12v-3l12-12 10-7z" fill="#4E5A63"/>
<path transform="translate(960,1087)" d="m0 0 4 1 1 1v7l-3 1-4-1v-4l5-1v-2l-5 1v-2z" fill="#3F464C"/>
<path transform="translate(942,973)" d="m0 0 5 2v4l-5 1h5l-2 3-5-1-1-6z" fill="#3D454A"/>
<path transform="translate(950,689)" d="m0 0h1v8l-5 6-2 1h-7l-6-5 1-4 3 5 2 1h7l4-4z" fill="#141619"/>
<path transform="translate(964,686)" d="m0 0h7v2h-5v3h5v2h-5v3h5v2h-7z" fill="#171A1D"/>
<path transform="translate(1279,543)" d="m0 0 4 1 1 6-2 2-5-1-1-5z" fill="#B4E5D7"/>
<path transform="translate(526,915)" d="m0 0 6 1-1 4-1-2h-2l-1 4 1 2 4-1v3l-6 1-2-2v-7z" fill="#21262B"/>
<path transform="translate(1257,870)" d="m0 0h7l-1 2h-4v2l5 1v6l-1 1h-5l-2-3 6 1v-4l-5 1z" fill="#A87F7C"/>
<path transform="translate(241,433)" d="m0 0h1v24l-2 6-2 2-5-1v-2l5-2 2-4z" fill="#08090A"/>
<path transform="translate(882,438)" d="m0 0h5l1 4-2 4h-5l-2-4 1-3z" fill="#4C5456"/>
<path transform="translate(1221,986)" d="m0 0h6l1 1v5l-3 2-3-1-1 4z" fill="#66CFB6"/>
<path transform="translate(942,889)" d="m0 0 4 2 1 2-2 5-5-1-1-5z" fill="#C2D6DB"/>
<path transform="translate(1029,860)" d="m0 0 4 1 1 1v7l-6 1-1-5 5-1v-2l-5 1v-2z" fill="#42484D"/>
<path transform="translate(885,793)" d="m0 0h7l1 1v10h-2l-1-8h-2l-1 8h-2z" fill="#1B1F23"/>
<path transform="translate(350,240)" d="m0 0h5l2 5-5 7h5v2h-6l-2-1 2-5 3-3-1-3-4 1z" fill="#1F2327"/>
<path transform="translate(335,238)" d="m0 0 6 1v6l-4 5 5 1v1h-8v-3l4-5 1-4-5 2z" fill="#181B1E"/>
<path transform="translate(716,1324)" d="m0 0h2l1 9-5 4-2 2 1-6z" fill="#596771"/>
<path transform="translate(888,1094)" d="m0 0h2v15h2l-1-15 3 1-1 15-3 1-1-1-1-13-2 2-3-1z" fill="#A9E1D1"/>
<path transform="translate(1063,1089)" d="m0 0h10l2 2v7l-2 1v-8h-3l-1 8h-1l-1-7h-2l-1 6h-1z" fill="#1D2125"/>
<path transform="translate(1e3 1e3)" d="m0 0h1l1 10-1 2h-2v-2l-5-1 4-8z" fill="#ACCACF"/>
<path transform="translate(929,887)" d="m0 0h2v4h5v-4h2v10h-2v-4h-5v5l-2-1z" fill="#A1C4C9"/>
<path transform="translate(1048,860)" d="m0 0 4 1 1 1v8h-6l-1-5 5-1v-2l-5 1z" fill="#40464B"/>
<path transform="translate(950,793)" d="m0 0h5l2 3h-5l5 3-1 4-5 1-2-1v-2h5l-4-2-1-5z" fill="#15181B"/>
<path transform="translate(897,793)" d="m0 0h5l1 3-5-1v2l5 1 1 4-2 2h-5l-1-3 5 1-1-2-4-2z" fill="#1C1F23"/>
<path transform="translate(1036,792)" d="m0 0 5 2-3 1-2 1 5 2-1 5-4 1-3-2 1-2 4 1-3-2-2-1 1-5z" fill="#1C1F23"/>
<path transform="translate(897,658)" d="m0 0h8l7 2v1h-33v-1l17-1z" fill="#03B087"/>
<path transform="translate(968,598)" d="m0 0 4 2 1 4-3 3-4-1-1-5z" fill="#D8F0EA"/>
<path transform="translate(911,593)" d="m0 0 10 2 1 1v5l-7 2-2-2h3l-1-5z" fill="#85D7C2"/>
<path transform="translate(980,545)" d="m0 0 4 1 1 5-2 1h2v2l-4 1-3-2v-6z" fill="#9EDECC"/>
<path transform="translate(954,432)" d="m0 0 4 1v8l-4 1-2-2 1-7z" fill="#E1EAED"/>
<path transform="translate(560,1405)" d="m0 0m-4 0 4 2-14 2h-19v-1l15-1 2-1z" fill="#72858F"/>
<path transform="translate(270,1377)" d="m0 0h2l9 12 7 6 4 4h-3l-8-7-8-9z" fill="#9EBAC5"/>
<path transform="translate(253,1322)" d="m0 0 3 2 1 16-3 1-1-2-1-13z" fill="#A0BDC8"/>
<path transform="translate(998,1229)" d="m0 0h3l1 9-1 2h-2v-2h-5l3-7z" fill="#AAC6CE"/>
<path transform="translate(1079,1089)" d="m0 0 4 1 1 5-5 1h5l-1 3-5-1-1-1v-6z" fill="#40464B"/>
<path transform="translate(959,974)" d="m0 0h5l1 5-5 1h5v2l-6 1-2-3 1-5z" fill="#3E444A"/>
<path transform="translate(986,860)" d="m0 0 5 1v9l-7-1v-4l5-1v-2l-4 1z" fill="#3F464B"/>
<path transform="translate(1057,600)" d="m0 0h5l-1 8-1 3h-4z" fill="#D1EEE6"/>
<path transform="translate(1312,165)" d="m0 0 10 4 2 1v2l-4 1-9-3-3-2 3-2z" fill="#444F57"/>
<path transform="translate(930,1197)" d="m0 0h5l1 2h-5l1 3 4 2h-5v4h5v2h-6l-1-1v-11z" fill="#202529"/>
<path transform="translate(1016,974)" d="m0 0 5 1 1 4h-6l1 2h5l-3 3-4-1-1-7z" fill="#353C3F"/>
<path transform="translate(1e3 860)" d="m0 0 4 1 1 1v8l-7-1v-4l5-1v-2l-4 1z" fill="#464C52"/>
<path transform="translate(930,857)" d="m0 0h7v2h-5v4h5v1h-5v4h5l-1 2h-5l-1-1z" fill="#202529"/>
<path transform="translate(973,793)" d="m0 0h5l2 2v3h-2l-3-3-1 5 6 2-2 2-5-1-2-2 1-7z" fill="#171A1D"/>
<path transform="translate(940,793)" d="m0 0h5l2 2v3h-2l-1-2h-3v5h6l-2 3-6-1-1-2v-6z" fill="#191C20"/>
<path transform="translate(1285,219)" d="m0 0 5 1v4l1 5-2 2h-5v-3l4 1v-3h-2v-2h2v-3l-5 1z" fill="#9EDECC"/>
<path transform="translate(877,1422)" d="m0 0 12 3 7 1v1h-20z" fill="#3C444D"/>
<path transform="translate(1164,1308)" d="m0 0 5 1 1 4-2 3-5-1-1-4z" fill="#FDFDFD"/>
<path transform="translate(986,657)" d="m0 0h12l9 2v1h-23z" fill="#03B087"/>
<path transform="translate(925,433)" d="m0 0 4 1v7l-5 1-1-1v-6z" fill="#E5EDEF"/>
<path transform="translate(939,427)" d="m0 0 6 2 5 2-1 8h-1l-1 6-4-1h3l-1-12-1-1-7-1 2-1z" fill="#CDDDE1"/>
<path transform="translate(935,226)" d="m0 0h8v3h-6l1 3 2 2-6 1v-8z" fill="#213032"/>
<path transform="translate(840,1389)" d="m0 0 4 2 10 9 4 4-2 1-8-6-7-8z" fill="#71848E"/>
<path transform="translate(1249,1217)" d="m0 0 4 1 1 4-4 5 4 1v2h-8l2-4 3-4v-2l-5 1 1-3z" fill="#AC7974"/>
<path transform="translate(1221,1217)" d="m0 0h7l2 2v4h-2l-1-3-4-1v4l2 1-2 5h-2z" fill="#A97974"/>
<path transform="translate(1103,1090)" d="m0 0 5 1 1 1v7h-7l-1-3 1-2h5l-1-2-4-1z" fill="#394044"/>
<path transform="translate(628,276)" d="m0 0 6 1 5 5h-3l-4-2-6 1h-3l2-4z" fill="#121416"/>
<path transform="translate(314,262)" d="m0 0h7l2 1v5l-4 1-2-4-1 3h-2z" fill="#76858D"/>
<path transform="translate(267,218)" d="m0 0v3l-7 3-12 2 4-4z" fill="#020202"/>
<path transform="translate(252,1336)" d="m0 0 2 3 4 17 2 7h-2l-4-12-1-1z" fill="#171A1D"/>
<path transform="translate(1e3 1202)" d="m0 0 4 1v9h-5l-2-4 5-3h-4v-2z" fill="#454B51"/>
<path transform="translate(985,1202)" d="m0 0 5 1 1 1v7h-7l1-5h4l-1-2-4-1z" fill="#3A4246"/>
<path transform="translate(940,1087)" d="m0 0 5 1 1 1v7h-6l-1-4 5-1-2-2-3-1z" fill="#4C5459"/>
<path transform="translate(1231,218)" d="m0 0 3 1v11h-4v-11z" fill="#0A0C0D"/>
<path transform="translate(983,1088)" d="m0 0 5 1 1 4h-6l1 2 4 1-5 1-2-2v-5z" fill="#3A4145"/>
<path transform="translate(1268,986)" d="m0 0h5l1 7-2 5-4-1h3l-1-8h-2l-1 7h-1v-8z" fill="#42C4A5"/>
<path transform="translate(984,793)" d="m0 0h5l2 3-5-1-1 5h4 2l-1 3-5 1-3-3v-6z" fill="#16191C"/>
<path transform="translate(919,795)" d="m0 0 8 1v5l-8 1-1-5z" fill="#E0EAEC"/>
<path transform="translate(1324,171)" d="m0 0 7 3 6 4-2 2-7-3-6-3v-2z" fill="#31393F"/>
<path transform="translate(961,1318)" d="m0 0 3 1v2l5 2h6l1 3-7 1-7-4z" fill="#8CA9B0"/>
<path transform="translate(1208,987)" d="m0 0 3 1v3h3v2h-4v4h-2v-3l-4-1 1-3h2z" fill="#7CD5BE"/>
<path transform="translate(856,790)" d="m0 0h10v2h-4v12h-2v-12h-4z" fill="#0F1113"/>
<path transform="translate(906,469)" d="m0 0h7l1 1v8h-2l-1-7-2 1-1 7-2-1z" fill="#8FAEB3"/>
<path transform="translate(258,274)" d="m0 0 3 3-1 27h-1l-1-17z" fill="#A0BDC8"/>
<path transform="translate(818,256)" d="m0 0h1v20l-3 2v-13l1-8z" fill="#1C2024"/>
<path transform="translate(1024,1203)" d="m0 0 5 1v4h-5l1 2 4 1-5 1-2-2v-5z" fill="#3B4145"/>
<path transform="translate(1048,1089)" d="m0 0h5l1 5h-6l1 2h5l-1 2h-5l-1-1v-7z" fill="#33383C"/>
<path transform="translate(855,467)" d="m0 0h6v4l-1 1h-5v8h-1v-12z" fill="#BCCFD6"/>
<path transform="translate(1291,313)" d="m0 0 2 1 12 1v1l-14 1-2 8h-2v-8z" fill="#1A1D21"/>
<path transform="translate(864,1335)" d="m0 0 3 1v2h2v7h-5z" fill="#A5E0CF"/>
<path transform="translate(995,793)" d="m0 0h5l2 5h-2v-3h-4v6h5l-2 3-5-1-2-5z" fill="#15181B"/>
<path transform="translate(983,1342)" d="m0 0 4 1-3 3v2l4-1 1-4 3-1 1 2h-3l1 3 2 1v2l-10-1-1-6z" fill="#A1C4C9"/>
<path transform="translate(1160,1322)" d="m0 0h9l-1 2-10 1v6l-3 1v-6z" fill="#768A95"/>
<path transform="translate(953 1e3)" d="m0 0 5 1 1 3-5 2h4v2h-5l-1-1v-6z" fill="#AECBD1"/>
<path transform="translate(959,546)" d="m0 0h6l1 1v8h-2v-7h-3v7h-2z" fill="#A9E1D1"/>
<path transform="translate(951,468)" d="m0 0 5 1 1 4h-5l2-1v-2h-3v6h4v2l-5-1-1-7z" fill="#7E959E"/>
<path transform="translate(1161,1309)" d="m0 0 3 6 7-1 1-2-1 5-2 2h-5l-3-4z" fill="#758A93"/>
<path transform="translate(958,1227)" d="m0 0 5 1-2 2-2-1v3h4l1 5-2 2-5-1-1-2 5 1v-3h-4v-6z" fill="#A2C6CA"/>
<path transform="translate(931,1115)" d="m0 0 5 1v6l-4 1-2-3z" fill="#FDFDFD"/>
<path transform="translate(1009 1e3)" d="m0 0h5v2l-4 2 4 1 1 5-5 2-1-2h4l-1-3h-4z" fill="#A2C6CA"/>
<path transform="translate(932 1e3)" d="m0 0 4 1 1 2-1 5-5-1-1-4z" fill="#FDFDFD"/>
<path transform="translate(953,889)" d="m0 0 5 2v3h-5l2 2 2-1-1 3-4-1-1-1v-5z" fill="#AEC7D0"/>
<path transform="translate(1031,795)" d="m0 0 2 1v2l6 2-1 2-4-1-2 1-3-1-3 1-2-1v-2h7z" fill="#E1E9ED"/>
<path transform="translate(1245,791)" d="m0 0h2l1 6 2-1 1-3h2l1-2-2 9-1 3h-2z" fill="#3DC3A2"/>
<path transform="translate(1008,341)" d="m0 0h4l1 6-4 2-2-1-1-4z" fill="#CCECE3"/>
<path transform="translate(927,1422)" d="m0 0h9v2l-10 1-14-1v-1z" fill="#768B95"/>
<path transform="translate(1278,1353)" d="m0 0 3 1 1 7-1 2-5-1 2-1 2 1v-2l-4-1v-5z" fill="#BAD0D7"/>
<path transform="translate(971,1339)" d="m0 0 2 1 1 7-4 2-2-2 1-5z" fill="#B8CFD6"/>
<path transform="translate(991,1088)" d="m0 0h6l1 2v7h-2l-1-7h-3v7h-2v-8z" fill="#21252A"/>
<path transform="translate(1225,870)" d="m0 0h6l1 1v8l1 3h-3l-2-4h-3v-2l4-1 1-3-5-1z" fill="#846768"/>
<path transform="translate(988,584)" d="m0 0 2 1v9l-1 1h-6l2-5z" fill="#1EBC97"/>
<path transform="translate(1223,297)" d="m0 0 3 1 2 2-6 2-2 10h-1l-1-6-1-2 3-5z" fill="#1E2226"/>
<path transform="translate(857,1403)" d="m0 0 5 2 3 3-1 2 5 2 1 2-6-2-8-6z" fill="#353C43"/>
<path transform="translate(324,1308)" d="m0 0h4v8l-6-2v-5z" fill="#BAD5D7"/>
<path transform="translate(1174,1305)" d="m0 0 3 1v2l3 1v6l-3 3-2-1 1-1v-6l-3-2z" fill="#799098"/>
<path transform="translate(938,1201)" d="m0 0h7l1 1v8h-2l-1-7h-2l-1 7-2-2z" fill="#282D33"/>
<path transform="translate(1295,1104)" d="m0 0h3l1 7-1 2-4-1v-6z" fill="#FDFDFD"/>
<path transform="translate(1224,870)" d="m0 0 6 2-1 4h-4l1 6h-2z" fill="#D9B8B4"/>
<path transform="translate(241,702)" d="m0 0h1l-1 7-3 3-7-1 4-2h2l2-4z" fill="#0C0E0F"/>
<path transform="translate(908,236)" d="m0 0 3 1-2 3h5v2l-9 1-1-2z" fill="#142D2B"/>
<path transform="translate(1292,1322)" d="m0 0 2 4 4 2-1 4-3 2-7 1v-2l7-1-1-4-1-1z" fill="#8098A0"/>
<path transform="translate(417,1302)" d="m0 0h1v10l-4 1-1-1 1-7h2z" fill="#BED4D9"/>
<path transform="translate(987,1229)" d="m0 0h5l1 5-2 3 2 1v2h-6v-3h2l2-5v-2h-2v2h-2z" fill="#A1C2C9"/>
<path transform="translate(1232,1102)" d="m0 0h1v5l6-1 1 8-3-1-1-4-2 1-2 3z" fill="#83696A"/>
<path transform="translate(1234,993)" d="m0 0 5 1-1 3h-2l-1 3-5-3v-3z" fill="#75D3BB"/>
<path transform="translate(1258,988)" d="m0 0 4 1v6l-1 2-4-1z" fill="#DFF3ED"/>
<path transform="translate(1168,689)" d="m0 0 2 2-3 7-5 4h-5l-1-2 9-2z" fill="#16191C"/>
<path transform="translate(240,588)" d="m0 0h2v6l-4 4h-4v-2h2l2-4z" fill="#0B0C0E"/>
<path transform="translate(894,469)" d="m0 0h2l2 5 2-5h2l-3 10h-2l-3-7z" fill="#8DA7B0"/>
<path transform="translate(1155,1349)" d="m0 0h4l1 6-5 1-1-1v-5z" fill="#B8D1D6"/>
<path transform="translate(948,1338)" d="m0 0 1 4h3l1-3 2 1v8h-2v-4h-4l-1 4-1-1v-8z" fill="#A2C8CA"/>
<path transform="translate(942 1e3)" d="m0 0 4 1v8h-2v-7l-2 1-1 5-2-1v-6z" fill="#A2C6CA"/>
<path transform="translate(1295,872)" d="m0 0 4 1v6l-3 2-2-2z" fill="#FDFDFD"/>
<path transform="translate(936,546)" d="m0 0 4 1v2h-3l4 3-1 3h-5l-1-2h4l-4-3z" fill="#A9E1D1"/>
<path transform="translate(1223,221)" d="m0 0h4v9h-4z" fill="#08090A"/>
<path transform="translate(864,1408)" d="m0 0 17 7 2 2-9-2-10-5z" fill="#A0BDC8"/>
<path transform="translate(1308,1355)" d="m0 0 4 1 1 4-1 2-5-1v-5z" fill="#C0D5DA"/>
<path transform="translate(1315,1355)" d="m0 0 4 1v4l-1 3-4-2v-5z" fill="#B0CBD1"/>
<path transform="translate(1184,1350)" d="m0 0 4 1 1 3-2 3-4-1-1-4z" fill="#B8D0D6"/>
<path transform="translate(1223,1219)" d="m0 0 5 1 2 9h-3l-2-6h-2z" fill="#DBBEBB"/>
<path transform="translate(480,916)" d="m0 0 4 1v6l-4 1-1-7z" fill="#DDE9EB"/>
<path transform="translate(477,909)" d="m0 0h2v6l2 1-1 1v7h-3z" fill="#060708"/>
<path transform="translate(1270,871)" d="m0 0 3 3-1 6-4-1v-6z" fill="#FDFDFD"/>
<path transform="translate(893,795)" d="m0 0h3l1 3 4 2v2l-5-1-1 2-2 1z" fill="#CADBE0"/>
<path transform="translate(925,226)" d="m0 0 5 1 1 1v6l-1-2h-2v-3l-6 2v-3z" fill="#153430"/>
<path transform="translate(971,1228)" d="m0 0 5 1 1 2-4 6 3 2-3 1-3-1 4-8-2-1-2 2z" fill="#A1C3C9"/>
<path transform="translate(936,1203)" d="m0 0 3 3-2 4-1-2h-5v-4z" fill="#D2E2E4"/>
<path transform="translate(1245,1100)" d="m0 0 5 3v2l-4-1 1 3-4 1-1-5 3-1z" fill="#B9847F"/>
<path transform="translate(1028,1089)" d="m0 0h1l1 6 3 1v-7h2v9h-6l-1-1z" fill="#1F2327"/>
<path transform="translate(939,860)" d="m0 0h6l1 1v9h-1l-1-7-3-1v7h-2z" fill="#1D2125"/>
<path transform="translate(1265,793)" d="m0 0h7l-1 3h-4v7h-2z" fill="#6CCFB6"/>
<path transform="translate(1016,790)" d="m0 0h2v3l2 1-1 1v6l1 2-4-1-1-7-1-2h2z" fill="#0A0B0D"/>
<path transform="translate(234,618)" d="m0 0 5 1 3 3v3l-5-1-4-5z" fill="#1B1F23"/>
<path transform="translate(925,580)" d="m0 0 2 1 1 5-1 1h-5l-2-4 5-1z" fill="#B2E4D6"/>
<path transform="translate(869,470)" d="m0 0 3 1v4h-6v2h6l-1 2h-5l-2-2 1-5 5 2z" fill="#94B0BA"/>
<path transform="translate(821,254)" d="m0 0h1l-1 12-3 1 1-12z" fill="#94AEB9"/>
<path transform="translate(329,237)" d="m0 0 2 1v13h-2l-1-10h-2l1-3z" fill="#1F2327"/>
<path transform="translate(1255,1353)" d="m0 0 5 1v6l-5-1z" fill="#BDD3D8"/>
<path transform="translate(1295,1221)" d="m0 0h3v8h-4v-7z" fill="#FDFDFD"/>
<path transform="translate(1285,1220)" d="m0 0 3 1v7l-4 1v-8z" fill="#FDFDFD"/>
<path transform="translate(1293,987)" d="m0 0 2 1-2 7 4 1 2-6h1l-1 7-5 1-2-2v-7z" fill="#43C6A6"/>
<path transform="translate(1247,986)" d="m0 0 5 1-1 6h-4l1-3h2v-2l-5 2v-3z" fill="#69D0B6"/>
<path transform="translate(930,971)" d="m0 0 2 1-1 4h5l2 7h-2l-2-4h-2l-2 3z" fill="#181C1F"/>
<path transform="translate(513,915)" d="m0 0h6l3 2v9h-2l-1-8h-6z" fill="#131618"/>
<path transform="translate(1286,871)" d="m0 0 2 1 1 5-1 3-4-1v-6z" fill="#FDFDFD"/>
<path transform="translate(1284,793)" d="m0 0h5v3l-1 5h-3l-1-5z" fill="#CCECE3"/>
<path transform="translate(973,689)" d="m0 0h6l1 1v8h-1v-7h-4v7h-2z" fill="#1A1E21"/>
<path transform="translate(1380,676)" d="m0 0h1v14l-2-1-2-10z" fill="#424B54"/>
<path transform="translate(884,434)" d="m0 0 4 1-1 3-7 1-1 3-1-4 1-2z" fill="#CCE1E2"/>
<path transform="translate(1217,223)" d="m0 0 4 1v6h-5v-6z" fill="#1C2024"/>
<path transform="translate(1344,190)" d="m0 0 5 4 2-2 4 6-5 1-6-7z" fill="#414B53"/>
<path transform="translate(896,175)" d="m0 0h26v1l-27 2z" fill="#A0BDC8"/>
<path transform="translate(1295,1354)" d="m0 0 4 1 1 6-4 1-2-1 1-4z" fill="#A6C4CC"/>
<path transform="translate(980,1230)" d="m0 0h3l1 6-1 2h-3l-1-6z" fill="#FDFDFD"/>
<path transform="translate(1269,1220)" d="m0 0 3 1v7h-4v-7z" fill="#FDFDFD"/>
<path transform="translate(908,793)" d="m0 0 5 1 1 4h-2l-1 4h-3v-3h3l1-4-6 1v-2z" fill="#60666B"/>
<path transform="translate(1287,548)" d="m0 0 2 4-5 4h-8l1-2 6 1 1-4z" fill="#B6E5D7"/>
<path transform="translate(970,546)" d="m0 0 3 1 1 2 1-3 3 1-4 8-3-4z" fill="#A9E1D1"/>
<path transform="translate(1278,540)" d="m0 0h7l5 5 1 4-3 1-2-6-3-2-5-1z" fill="#D3EFE7"/>
<path transform="translate(962,468)" d="m0 0h2l2 4 2-4 2 1-2 7-3 1z" fill="#8AA4AD"/>
<path transform="translate(950,445)" d="m0 0 5 1-1 4-5 1-1-4z" fill="#A9E1D1"/>
<path transform="translate(890,181)" d="m0 0 6 1v2l-5 2-6 2-4-1 7-2z" fill="#677882"/>
<path transform="translate(1235,1222)" d="m0 0 4 1-1 3-2-1 1 2h2v2l-4 2-4-5 3 1z" fill="#A47571"/>
<path transform="translate(930,795)" d="m0 0 4 1v5l-4 1-1-1v-5z" fill="#E5ECEF"/>
<path transform="translate(964,793)" d="m0 0h6v2h-3l-1 9h-2z" fill="#0F1012"/>
<path transform="translate(940,687)" d="m0 0 4 2 1 3-4-1v7h-1v-7l-4 2 2-4z" fill="#121517"/>
<path transform="translate(1314,504)" d="m0 0 4 2 2 6-7-1v-4l2-1z" fill="#A4DFCF"/>
<path transform="translate(236,503)" d="m0 0 5 3 1 5-4-1-4-4v-2z" fill="#101315"/>
<path transform="translate(1173,1349)" d="m0 0 4 2v5l-4 1-2-3 3-2-2-2z" fill="#AAC7CE"/>
<path transform="translate(352,1307)" d="m0 0 4 1v6l-4 1-1-4z" fill="#A9C5CD"/>
<path transform="translate(875,798)" d="m0 0 5 1-1 5-5-1z" fill="#555C60"/>
<path transform="translate(1157,678)" d="m0 0 5 1-1 2-7 1-4 6-1-4 5-5z" fill="#15181B"/>
<path transform="translate(917,582)" d="m0 0 3 1h-2v6h-4l-1-5z" fill="#6CD0B7"/>
<path transform="translate(1277,539)" d="m0 0h6v2l5 4-1 2-5-4h-6l-2-2z" fill="#AEE2D3"/>
<path transform="translate(984,465)" d="m0 0h2v2l2 1-2 7h2v2l-4-2-1-8z" fill="#9CB8C3"/>
<path transform="translate(285,207)" d="m0 0 1 3-6 5-2 3-3-1 7-8z" fill="#090A0C"/>
<path transform="translate(256,1388)" d="m0 0h13l1 3-11-1z" fill="#020202"/>
<path transform="translate(821,1347)" d="m0 0 2 4 1 6-6-1v-6l2 1z" fill="#30363D"/>
<path transform="translate(963,1301)" d="m0 0 2 1 1 6h-6v-6l3 1z" fill="#6C8089"/>
<path transform="translate(937,1227)" d="m0 0 4 1 1 4-3 4 3 2-2 1-5-1 3-5 2-4-3-1z" fill="#A1C1C9"/>
<path transform="translate(1009,1116)" d="m0 0 3 1 1 5-3 3-2-3z" fill="#FDFDFD"/>
<path transform="translate(1e3 1086)" d="m0 0h2v2h2v2h-2v6l2 1-4-1-1-8z" fill="#1E2126"/>
<path transform="translate(470,913)" d="m0 0 4 2v11h-2l-1-9z" fill="#0E0F11"/>
<path transform="translate(1250,870)" d="m0 0h3v12h-2l-1-9-2-1z" fill="#BC837C"/>
<path transform="translate(948,860)" d="m0 0 2 2 1 3 3-5 1 3-3 7-3-3z" fill="#1E2126"/>
<path transform="translate(867,793)" d="m0 0h6v2l-3 1-1 8h-2z" fill="#101114"/>
<path transform="translate(1306,793)" d="m0 0 5 1v9l-4-2h2v-3l-3-1h3v-2l-3-1z" fill="#50C8AA"/>
<path transform="translate(982,689)" d="m0 0h2l2 4 2-4 1 3-2 6-3-1-2-5z" fill="#24282D"/>
<path transform="translate(814,348)" d="m0 0h1v19h-1l-2-10z" fill="#A0BDC8"/>
<path transform="translate(360,241)" d="m0 0h6l1 2h-6l1 3 2 2-4 1-1-1v-6z" fill="#262A30"/>
<path transform="translate(1337,179)" d="m0 0 5 3 7 7 1 3h-2l-5-6-6-5z" fill="#5E6D77"/>
<path transform="translate(837,1391)" d="m0 0 7 6 5 5v2l-4-2-8-9z" fill="#A0BDC8"/>
<path transform="translate(255,1336)" d="m0 0 2 4 1 1v9l-1-4h-2l-1-5z" fill="#71848E"/>
<path transform="translate(315,1308)" d="m0 0h5l1 1v7l-2-1v-5h-2v5l-2-2z" fill="#A3CCCB"/>
<path transform="translate(950,1229)" d="m0 0 3 1v6h-4v-6z" fill="#FDFDFD"/>
<path transform="translate(930,1227)" d="m0 0h3v11h-2v-8l-3-1z" fill="#A0C0C8"/>
<path transform="translate(459,913)" d="m0 0h2l1 4-1 9h-2z" fill="#0C0D0F"/>
<path transform="translate(998,888)" d="m0 0 2 1v6l-3 2-1-1v-6z" fill="#FDFDFD"/>
<path transform="translate(976,888)" d="m0 0 3 1v6h-4v-6z" fill="#FDFDFD"/>
<path transform="translate(988,468)" d="m0 0 1 2 5-1v2l-4 1-2 4-2-1v-5z" fill="#FDFDFD"/>
<path transform="translate(612,274)" d="m0 0h2v10l-3-1v-8z" fill="#181B1F"/>
<path transform="translate(270,1378)" d="m0 0 4 5 2 4h-3l-4-4z" fill="#3D464E"/>
<path transform="translate(1178,1323)" d="m0 0 5 1 1 1v8h-2l-1-8h-3z" fill="#7F969F"/>
<path transform="translate(1273,1319)" d="m0 0 2 2v6l-2 5-2-1 1-7z" fill="#7A909A"/>
<path transform="translate(1075,1302)" d="m0 0 2 1-6 8h-3l-2-1 3-3h3l2-4z" fill="#99DCCA"/>
<path transform="translate(947,1201)" d="m0 0h2l1 6h2l1-6 1 4-2 5-3-1z" fill="#22262B"/>
<path transform="translate(953,1117)" d="m0 0h5l-4 2 2 2h-2v2h4v2h-5l-1-1v-6z" fill="#A1C1C9"/>
<path transform="translate(1267,1102)" d="m0 0h7v2h-5v2l2 1-4 2z" fill="#BB837C"/>
<path transform="translate(1295,989)" d="m0 0h2l1 5-1 2-4-1v-5z" fill="#EDF7F4"/>
<path transform="translate(1010,793)" d="m0 0 3 2v8h-3z" fill="#24292E"/>
<path transform="translate(864,734)" d="m0 0h2l-1 4h-2v3l-4-1v-3z" fill="#1EBC97"/>
<path transform="translate(236,410)" d="m0 0 5 3 1 5-5-3v-2h-2z" fill="#131518"/>
<path transform="translate(629,281)" d="m0 0 6 2v3l-9-1 1-3z" fill="#15181B"/>
<path transform="translate(1123,1092)" d="m0 0 4 1-1 5-4-1z" fill="#D6E3E6"/>
<path transform="translate(1037,1089)" d="m0 0 3 1v7l-1 4h-2z" fill="#30373E"/>
<path transform="translate(982 1e3)" d="m0 0h2v12l-2-1v-8l-2-1z" fill="#A0BEC8"/>
<path transform="translate(1039,976)" d="m0 0 4 1-1 5-4-1z" fill="#E0E9EC"/>
<path transform="translate(994,975)" d="m0 0 3 2-1 4h-4v-5z" fill="#D2E0E4"/>
<path transform="translate(977,862)" d="m0 0 4 1-1 5-4-1z" fill="#D2DFE4"/>
<path transform="translate(963,862)" d="m0 0 4 1-1 5-4-1z" fill="#D5E1E6"/>
<path transform="translate(1313,798)" d="m0 0 5 1 1 4-4 1v-2h-3z" fill="#9ADDCC"/>
<path transform="translate(1021,794)" d="m0 0h1v8l-4-1v-6z" fill="#D9E4E8"/>
<path transform="translate(308,259)" d="m0 0 1 2 4 2v5l-1-4h-2v4h-2z" fill="#5C6A72"/>
<path transform="translate(266,204)" d="m0 0 2 1z" fill="#A0BDC8"/>
<path transform="translate(244,223)" d="m0 0" fill="#A0BDC8"/>
<path transform="translate(245,222)" d="m0 0" fill="#A0BDC8"/>
<path transform="translate(246,221)" d="m0 0" fill="#A0BDC8"/>
<path transform="translate(247,220)" d="m0 0" fill="#A0BDC8"/>
<path transform="translate(593,219)" d="m0 0" fill="#FDFDFD"/>
<path transform="translate(248,219)" d="m0 0" fill="#A0BDC8"/>
<path transform="translate(249,218)" d="m0 0" fill="#A0BDC8"/>
<path transform="translate(250,217)" d="m0 0" fill="#A0BDC8"/>
<path transform="translate(251,216)" d="m0 0" fill="#A0BDC8"/>
<path transform="translate(252,215)" d="m0 0" fill="#A0BDC8"/>
<path transform="translate(253,214)" d="m0 0" fill="#A0BDC8"/>
<path transform="translate(254,213)" d="m0 0" fill="#A0BDC8"/>
<path transform="translate(255,212)" d="m0 0" fill="#A0BDC8"/>
<path transform="translate(256,211)" d="m0 0" fill="#A0BDC8"/>
<path transform="translate(257,210)" d="m0 0" fill="#FDFDFD"/>
<path transform="translate(265,205)" d="m0 0" fill="#A0BDC8"/>
<path transform="translate(518,197)" d="m0 0" fill="#FDFDFD"/>
<path transform="translate(517,196)" d="m0 0" fill="#FDFDFD"/>
</svg>
