<?xml version="1.0" encoding="UTF-8"?>
<svg version="1.1" viewBox="0 0 2048 807" width="284" height="112" xmlns="http://www.w3.org/2000/svg">
<path transform="translate(46,196)" d="m0 0h76l3 5 8 19 9 21 10 24 8 19 15 36 11 29 8 20 20 48 11 27 10 24 4 13 3 3 6-16 8-19 12-29 11-26 9-25 11-28 8-19 9-22 17-41 8-20 13-36 3-6 1-1h100l20 1 1 7v412l-2 2h-100v-248h-2l-3 9-7 19-8 20-13 37-11 29-14 38-8 20-7 20-8 19-12 33-2 3-4 1h-77l-4-7-8-17-11-31-9-26-10-25-8-22-10-25-8-21-8-20-17-51-5-5 1 13v236l-6 1h-97l-1-421z" fill="#5AC7AF"/>
<path transform="translate(1296,7)" d="m0 0h32l28 2 27 4 36 7 18 6 16 6 15 5 44 22 17 10 16 12 13 10 14 11 11 10 8 7 6 5 9 11 6 7 4 1 21-9 16-9 28-12 22-9-1 4-9 19-16 46-11 31-14 43-9 21-3 3h-152l-15-6-26-8-21-9-12-3-2-1 2-4 29-14 30-13 15-8 6-4-1-5-9-8-11-7-13-9-20-11-39-17-28-7-25-5-23-3h-26l-28 4-37 8-16 6-23 10-23 11-9 6-10 8-10 7-7 7-11 9-17 17-11 14-8 11-7 11-11 18-7 14-10 30-10 42-4 27-1 34-20 8-28 13-15 8-18 8-20 11-8 3h-7l-6-32-2-17v-37l2-21 6-31 10-46 12-31 11-28 9-17 8-14 7-12 9-12 7-11 11-14 13-15 12-13 11-10 11-9 9-9 13-10 14-10 16-11 20-11 24-11 14-7 20-7 19-7 38-8 24-4z" fill="#5AC7AF"/>
<path transform="translate(556,196)" d="m0 0h178l35 1 21 2 15 3 13 5 18 10 13 9 14 14 8 13 9 19 4 16v34l-3 12-7 16-7 13-11 12-11 9-8 6-11 5-10 4 17 9 14 7 14 12 8 7 12 17 5 12 6 21 1 6v26l-3 15-5 19-7 12-10 14-9 8-14 10-15 9-18 6-24 6-22 3h-210l-1-1-1-122v-269l1-28zm103 80-1 1v89l21 1h21l38-1 9-1 13-7 10-9 6-9 3-12v-14l-3-10-6-10-9-8-16-8-12-2zm0 164-1 2v93h78l14-1 12-3 10-6 6-5 6-10 4-13 1-6v-8l-5-16-6-9-10-9-14-7-16-2z" fill="#5AC7AF"/>
<path transform="translate(1e3 487)" d="m0 0 5 1 10 5 18 6 16 5 25 10 20 6 21 9 38 12 26 9 16 7 18 4v3l-8 5-14 7-33 15-28 14 6 7 8 7 13 9 8 7 24 12 20 8 18 8 37 9 22 4 16 2h20l32-5 40-9 15-6 18-8 23-11 15-9 15-11 8-6 11-11 7-8 9-8 7-8 9-9 4-9 2-2h140l-2 5-23 46-20 30-10 11-9 11-12 14-7 8-8 8-10 8-15 13-13 10-15 11-14 9-24 13-23 11-12 5-20 7-15 6-27 6-34 6-19 2-18 1h-32l-37-3-43-8-16-4-30-11-17-7-16-8-25-12-14-9-28-20-14-12-12-11-11-9-16-16-4-5h-6l-16 8-17 9-15 6-25 11-9 2 10-24 8-21 14-44 5-16 8-19 8-25 8-19 9-29 5-15z" fill="#EC7B6F"/>
<path transform="translate(1306,228)" d="m0 0 25 1v15l1 4 12 3 25 7 23 8 23 11 3 2-1 5-7 11-11 14-7 12-4-1-5-5-8-6-36-13-7-3v82l25 6 12 5 24 12 15 12 8 11 8 14 3 10 1 7v18l-3 15-8 17-8 11-14 14-10 6-17 7-25 5-11 2v28l-1 2h-23l-2-1v-30l-18-2-19-5-26-9-12-7-11-7-11-8-7-6 1-4 8-10 12-13 4-7 5 1 15 8 12 7 16 8 15 6 14 4 1-57v-25l-15-5-23-7-22-11-10-7-8-9-7-11-3-8-3-14-1-7v-10l4-22 5-15 9-14 7-7 15-9 18-8 18-6 16-2v-19zm-5 63-14 6-12 8-8 8-3 8-1 6v10l4 10 7 7 10 7 13 6 8 1v-76zm30 136v66l1 9h8l12-4 10-6 7-6 7-13v-13l-5-13-5-6-17-9-14-5z" fill="#FED48E"/>
<path transform="translate(1985,306)" d="m0 0h54v230l-1 1h-53v-9l1-10-4 1-5 5-8 7-13 6-19 4h-15l-17-4-12-5-9-7-8-8-9-14-8-17-5-15-2-18 1-17 4-17 8-18 7-13 11-12 11-7 13-5 15-3h17l21 5 13 7 12 9-1-24v-51zm-47 102-11 4-9 8-6 12-2 8v22l4 12 9 10 13 8 6 2h10l12-5 9-7 7-8 4-10 1-9v-11l-3-14-7-10-7-7-12-5z" fill="#EC7B6F"/>
<path transform="translate(1527,361)" d="m0 0h19l20 3 16 5 12 7 9 8 10 15 8 16 3 12 1 8v26l-2 2-122 1 3 10 7 10 12 10 10 3h8l10-5 5-4h2l2-4 3-3 6-1h50l3 1-2 6-10 17-9 12-12 12-10 5-21 6-14 2h-16l-20-4-12-4-10-6-13-11-11-14-6-12-6-20-2-14v-11l3-16 7-24 7-11 9-11 8-7 17-9 15-4zm4 42-10 4-10 7-8 12-2 6 4 2h64l1-4-7-16-7-6-10-4-4-1z" fill="#EC7B6F"/>
<path transform="translate(1749,362)" d="m0 0h21l16 3 14 6 10 9 6 9 6 15 4 17 1 11v104l-1 1h-52l-1-2-1-104-3-7-5-8-6-5-8-3h-19l-10 3-6 5-6 12-2 8-1 100-1 1h-50l-1-1v-171l1-1h51l-1 17 8-4 9-7 16-6z" fill="#EC7B6F"/>
</svg>
